<?xml version="1.0" encoding="UTF-8"?><svg id="Ebene_2" xmlns="http://www.w3.org/2000/svg" viewBox="0 0 88.72 88.72"><defs><style>.cls-1{fill:#fff;}.cls-2{fill:#ffcf02;}.cls-3{fill:#1d1d1b;}</style></defs><g id="Ebene_1-2"><circle class="cls-2" cx="44.36" cy="44.36" r="44.36"/><path class="cls-1" d="m62.6,60.58H25.02c-2.9,0-5.26-2.37-5.26-5.26v-21.9c0-1.69.81-3.21,2.07-4.17.89-.68,2-1.09,3.2-1.09h37.58c2.9,0,5.26,2.37,5.26,5.26v21.9c0,2.9-2.37,5.26-5.26,5.26Z"/><path class="cls-3" d="m67.8,28.8c-1.19-1.2-2.83-1.94-4.64-1.94H25.57c-1.44,0-2.83.47-3.98,1.36-.23.18-.46.38-.65.58-1.23,1.22-1.92,2.86-1.92,4.62v21.9c0,3.61,2.94,6.55,6.55,6.55h37.59c3.61,0,6.55-2.94,6.55-6.55v-21.9c0-1.8-.72-3.43-1.91-4.62Zm-42.23.64h37.59c.61,0,1.2.14,1.72.4l-17.33,16.84c-1.78,1.74-4.57,1.74-6.36,0l-17.33-16.84c.53-.26,1.12-.4,1.72-.4Zm41.56,25.88c0,2.19-1.78,3.97-3.97,3.97H25.57c-2.18,0-3.97-1.78-3.97-3.97v-21.9c0-.63.15-1.23.41-1.77l17.38,16.88c1.39,1.36,3.19,2.05,4.98,2.05s3.59-.69,4.98-2.05l17.37-16.87c.28.52.42,1.13.42,1.76v21.9Z"/></g></svg>