<?xml version="1.0" encoding="UTF-8"?><svg id="Ebene_2" xmlns="http://www.w3.org/2000/svg" viewBox="0 0 101.38 149.79"><defs><style>.cls-1{fill:none;}.cls-2{fill:#face00;}.cls-3{fill:#fff;}.cls-4{fill:#1d1d1b;}</style></defs><g id="Ebene_1-2"><circle class="cls-2" cx="48.26" cy="92.01" r="44.36"/><rect class="cls-1" x=".52" width="100.86" height="149.79"/><path class="cls-3" d="m50.4,106.98v26.48c0,.49-.4.88-.89.88H3.88c-.5,0-.88-.38-.88-.88v-26.48c0-.49.39-.89.88-.89h45.63c.49,0,.89.4.89.89Z"/><path class="cls-3" d="m67.01,110.16v20.11c0,.47-.31.7-.45.78-.13.07-.48.23-.88-.01l-12.28-7.08v-7.47l12.28-7.09c.44-.25.89-.07,1.12.19.14.16.21.36.21.57Z"/><path class="cls-3" d="m87.26,86.02c-.01.08-.05.1-.08.12l-7.74,3.64c-.94.44-1.6,1.32-1.76,2.35l-1.32,8.45s-.02.08-.09.1c-.08.02-.11-.01-.13-.04l-5.86-6.23c-.6-.63-1.43-.99-2.28-.99-.17,0-.33.02-.5.04l-8.44,1.35s-.08.02-.13-.05-.02-.11-.01-.14l4.12-7.49c.5-.92.52-2.01.05-2.93l-3.9-7.62s-.03-.07.01-.14c.05-.06.1-.05.13-.05l8.4,1.6c1.03.2,2.07-.12,2.81-.86l6.04-6.06s.05-.05.13-.03c.08.03.08.08.09.11l1.07,8.48c.13,1.03.76,1.93,1.69,2.4l7.62,3.87s.08.04.08.12Z"/><path class="cls-4" d="m88.54,83.23l-7.62-3.87s-.07-.06-.07-.1l-1.08-8.49c-.15-1.19-.95-2.18-2.09-2.57s-2.38-.1-3.23.75l-6.04,6.06s-.07.04-.11.04l-8.41-1.6c-1.19-.23-2.37.23-3.09,1.19-.72.97-.83,2.23-.28,3.3l3.9,7.62s.01.08-.01.12l-4.12,7.5c-.58,1.06-.51,2.32.19,3.31.69.98,1.86,1.48,3.05,1.29l8.45-1.35s.08,0,.11.04l5.86,6.23c.6.64,1.42.99,2.27.99.31,0,.62-.05.93-.14,1.15-.36,1.98-1.32,2.17-2.51l1.33-8.45s.03-.08.07-.1l7.74-3.64c1.09-.51,1.78-1.58,1.79-2.78.02-1.21-.63-2.3-1.71-2.84Zm-1.36,2.91l-7.74,3.64c-.94.44-1.6,1.32-1.76,2.35l-1.32,8.45s-.02.08-.09.1c-.08.02-.11-.01-.13-.04l-5.86-6.23c-.6-.63-1.43-.99-2.28-.99-.17,0-.33.02-.5.04l-8.44,1.35s-.08.02-.13-.05-.02-.11-.01-.14l4.12-7.49c.5-.92.52-2.01.05-2.93l-3.9-7.62s-.03-.07.01-.14c.05-.06.1-.05.13-.05l8.4,1.6c1.03.2,2.07-.12,2.81-.86l6.04-6.06s.05-.05.13-.03c.08.03.08.08.09.11l1.07,8.48c.13,1.03.76,1.93,1.69,2.4l7.62,3.87s.08.04.08.12c-.01.08-.05.1-.08.12Z"/><path class="cls-3" d="m93.01,51.62l-4.13,2.61c-.72.46-1.17,1.25-1.2,2.1l-.15,4.88-3.76-3.11c-.47-.39-1.06-.6-1.65-.6-.24,0-.49.04-.73.1l-4.68,1.37,1.8-4.54c.32-.8.22-1.7-.27-2.41l-2.74-4.04,4.87.31c.87.05,1.69-.32,2.21-1l3-3.85,1.2,4.72c.22.84.82,1.51,1.64,1.8l4.59,1.66Z"/><path class="cls-4" d="m94.81,49.08l-5.17-1.87-1.37-5.33c-.24-.96-1-1.69-1.98-1.89-.98-.21-1.96.16-2.57.95l-3.37,4.34-5.5-.35c-.98-.06-1.92.44-2.41,1.3-.49.87-.45,1.92.11,2.74l3.09,4.55-2.03,5.12c-.37.92-.18,1.96.49,2.7s1.68,1.02,2.64.74l5.28-1.53,4.24,3.51c.48.39,1.06.6,1.65.6.36,0,.72-.08,1.07-.23.91-.41,1.49-1.29,1.52-2.28l.17-5.51,4.65-2.94c.85-.53,1.3-1.48,1.19-2.47-.11-.99-.76-1.82-1.7-2.15Zm-7.28,12.13l-3.76-3.11c-.47-.39-1.06-.6-1.65-.6-.24,0-.49.04-.73.1l-4.68,1.37,1.8-4.54c.32-.8.22-1.7-.27-2.41l-2.74-4.04,4.87.31c.87.05,1.69-.32,2.21-1l3-3.85,1.2,4.72c.22.84.82,1.51,1.64,1.8l4.59,1.66-4.13,2.61c-.72.46-1.17,1.25-1.2,2.1l-.15,4.88Z"/><path class="cls-3" d="m61.13,61.99l-4.21.6c-.82.12-1.53.63-1.89,1.37l-1.87,3.82-1.86-3.82c-.37-.74-1.08-1.26-1.9-1.37l-4.2-.6,3.05-2.95c.6-.58.87-1.41.72-2.23l-.73-4.18,3.75,1.99c.74.39,1.61.39,2.35,0l3.74-1.99-.73,4.18c-.14.82.13,1.65.73,2.23l3.05,2.95Z"/><path class="cls-4" d="m63.94,60.54l-3.59-3.47.86-4.92c.17-.95-.21-1.89-.99-2.46-.78-.57-1.79-.64-2.64-.19l-4.42,2.35-4.41-2.35c-.85-.45-1.86-.38-2.64.19-.78.57-1.16,1.51-1,2.46l.86,4.92-3.59,3.47c-.69.67-.93,1.66-.64,2.58.3.91,1.08,1.56,2.03,1.7l4.95.7,2.2,4.49c.42.86,1.28,1.4,2.24,1.4s1.83-.54,2.25-1.4l2.2-4.49,4.94-.7c.96-.14,1.74-.79,2.03-1.71.3-.91.05-1.9-.64-2.57Zm-8.91,3.42l-1.87,3.82-1.86-3.82c-.37-.74-1.08-1.26-1.9-1.37l-4.2-.6,3.05-2.95c.6-.58.87-1.41.72-2.23l-.73-4.18,3.75,1.99c.74.39,1.61.39,2.35,0l3.74-1.99-.73,4.18c-.14.82.13,1.65.73,2.23l3.05,2.95-4.21.6c-.82.12-1.53.63-1.89,1.37Z"/><path class="cls-4" d="m41.72,128.19h-11.88c-1.59,0-2.88-1.29-2.88-2.88v-7.94c0-1.59,1.29-2.88,2.88-2.88h11.88c1.59,0,2.88,1.29,2.88,2.88v7.94c0,1.59-1.29,2.88-2.88,2.88Zm-11.76-3h11.64v-7.7h-11.64v7.7Z"/><path class="cls-4" d="m20.29,117.49h-10c-.83,0-1.5-.67-1.5-1.5s.67-1.5,1.5-1.5h10c.83,0,1.5.67,1.5,1.5s-.67,1.5-1.5,1.5Z"/><path class="cls-4" d="m20.29,128.19h-10c-.83,0-1.5-.67-1.5-1.5s.67-1.5,1.5-1.5h10c.83,0,1.5.67,1.5,1.5s-.67,1.5-1.5,1.5Z"/><path class="cls-4" d="m69.07,107.63c-1.22-1.41-3.28-1.76-4.89-.83l-10.78,6.23v-6.05c0-2.14-1.75-3.89-3.89-3.89h-1.48c3.16-2.53,5.19-6.41,5.19-10.77,0-7.59-6.17-13.77-13.77-13.77-5.35,0-9.99,3.07-12.27,7.53-2.28-4.46-6.93-7.53-12.28-7.53-7.59,0-13.77,6.18-13.77,13.77,0,4.36,2.03,8.24,5.2,10.77h-2.45c-2.14,0-3.88,1.75-3.88,3.89v26.48c0,2.14,1.74,3.88,3.88,3.88h45.63c2.14,0,3.89-1.74,3.89-3.88v-6.04l10.78,6.22c.61.35,1.27.53,1.94.53s1.33-.18,1.94-.53c1.22-.7,1.95-1.96,1.95-3.37v-20.11c0-.93-.32-1.81-.94-2.53Zm-29.62-26.08c5.94,0,10.77,4.83,10.77,10.77s-4.83,10.77-10.77,10.77-10.77-4.83-10.77-10.77,4.83-10.77,10.77-10.77Zm-8.57,21.54h-7.4c1.54-1.22,2.8-2.77,3.7-4.53.9,1.76,2.17,3.31,3.7,4.53Zm-26.75-10.77c0-5.94,4.83-10.77,10.77-10.77s10.78,4.83,10.78,10.77-4.84,10.77-10.78,10.77-10.77-4.83-10.77-10.77Zm46.27,41.14c0,.49-.4.88-.89.88H3.88c-.5,0-.88-.38-.88-.88v-26.48c0-.49.39-.89.88-.89h45.63c.49,0,.89.4.89.89v26.48Zm16.61-3.19c0,.47-.31.7-.45.78-.13.07-.48.23-.88-.01l-12.28-7.08v-7.47l12.28-7.09c.44-.25.89-.07,1.12.19.14.16.21.36.21.57v20.11Z"/><path class="cls-3" d="m25.68,92.32c0,5.94-4.84,10.77-10.78,10.77s-10.77-4.83-10.77-10.77,4.83-10.77,10.77-10.77,10.78,4.83,10.78,10.77Z"/><path class="cls-4" d="m14.9,98.33c-3.31,0-6.01-2.69-6.01-6s2.69-6,6.01-6,6,2.69,6,6-2.69,6-6,6Zm0-9.01c-1.66,0-3.01,1.35-3.01,3s1.35,3,3.01,3,3-1.35,3-3-1.35-3-3-3Z"/><circle class="cls-3" cx="39.45" cy="92.32" r="10.77" transform="translate(-53.73 54.94) rotate(-45)"/><path class="cls-4" d="m39.45,98.33c-3.31,0-6-2.69-6-6s2.69-6,6-6,6,2.69,6,6-2.69,6-6,6Zm0-9.01c-1.66,0-3,1.35-3,3s1.35,3,3,3,3-1.35,3-3-1.35-3-3-3Z"/></g></svg>