<?xml version="1.0" encoding="UTF-8"?><svg id="Ebene_2" xmlns="http://www.w3.org/2000/svg" viewBox="0 0 101.49 149.79"><defs><style>.cls-1{fill:none;}.cls-2{fill:#fff;}.cls-3{fill:#ffcf02;}.cls-4{fill:#1d1d1b;}</style></defs><g id="Ebene_1-2"><circle class="cls-3" cx="44.36" cy="88.92" r="44.36"/><path class="cls-1" d="m50.49,110.96c-1.08.5-2.04,1.35-3.03,2.27.08-.06.15-.13.23-.19.99-.83,2.06-1.73,3.49-2.36-.23.08-.46.17-.69.28Zm0,0c-1.08.5-2.04,1.35-3.03,2.27.08-.06.15-.13.23-.19.99-.83,2.06-1.73,3.49-2.36-.23.08-.46.17-.69.28Zm0,0c-1.08.5-2.04,1.35-3.03,2.27.08-.06.15-.13.23-.19.99-.83,2.06-1.73,3.49-2.36-.23.08-.46.17-.69.28Zm0,0c-1.08.5-2.04,1.35-3.03,2.27.08-.06.15-.13.23-.19.99-.83,2.06-1.73,3.49-2.36-.23.08-.46.17-.69.28Zm0,0c-1.08.5-2.04,1.35-3.03,2.27.08-.06.15-.13.23-.19.99-.83,2.06-1.73,3.49-2.36-.23.08-.46.17-.69.28Zm0,0c-1.08.5-2.04,1.35-3.03,2.27.08-.06.15-.13.23-.19.99-.83,2.06-1.73,3.49-2.36-.23.08-.46.17-.69.28Zm18.35,21.17c-2.82,0-4.18-1.15-5.76-2.48-1.78-1.49-3.79-3.19-7.7-3.19s-5.92,1.7-7.69,3.19c-1.58,1.33-2.95,2.48-5.76,2.48s-4.19-1.15-5.77-2.48c-1.77-1.49-3.78-3.19-7.7-3.19s-5.92,1.7-7.7,3.19c-1.58,1.33-2.94,2.48-5.76,2.48-.83,0-1.5.67-1.5,1.5s.67,1.5,1.5,1.5c3.91,0,5.92-1.69,7.7-3.19,1.58-1.33,2.94-2.48,5.76-2.48s4.19,1.15,5.77,2.48c1.77,1.5,3.78,3.19,7.7,3.19s5.92-1.69,7.69-3.19c1.58-1.33,2.94-2.48,5.76-2.48s4.18,1.15,5.76,2.48c1.78,1.5,3.79,3.19,7.7,3.19.83,0,1.5-.67,1.5-1.5s-.67-1.5-1.5-1.5Zm-17.07-18.46c-.69.33-1.48,1.03-2.31,1.8.06-.04.11-.09.16-.13.87-.74,1.68-1.42,2.7-1.89-.19.06-.37.14-.55.22Zm-1.28-2.71c-1.08.5-2.04,1.35-3.03,2.27.08-.06.15-.13.23-.19.99-.83,2.06-1.73,3.49-2.36-.23.08-.46.17-.69.28Zm0,0c-1.08.5-2.04,1.35-3.03,2.27.08-.06.15-.13.23-.19.99-.83,2.06-1.73,3.49-2.36-.23.08-.46.17-.69.28Zm0,0c-1.08.5-2.04,1.35-3.03,2.27.08-.06.15-.13.23-.19.99-.83,2.06-1.73,3.49-2.36-.23.08-.46.17-.69.28Zm0,0c-1.08.5-2.04,1.35-3.03,2.27.08-.06.15-.13.23-.19.99-.83,2.06-1.73,3.49-2.36-.23.08-.46.17-.69.28Zm0,0c-1.08.5-2.04,1.35-3.03,2.27.08-.06.15-.13.23-.19.99-.83,2.06-1.73,3.49-2.36-.23.08-.46.17-.69.28Z"/><path class="cls-1" d="m.63,0v149.79h100.86V0H.63Zm35.92,51.67c6.51,0,11.8,5.3,11.8,11.8s-5.29,11.79-11.8,11.79-11.79-5.29-11.79-11.79,5.29-11.8,11.79-11.8Zm32.29,83.46c-3.91,0-5.92-1.69-7.7-3.19-1.58-1.33-2.94-2.48-5.76-2.48s-4.18,1.15-5.76,2.48c-1.77,1.5-3.78,3.19-7.69,3.19s-5.93-1.69-7.7-3.19c-1.58-1.33-2.95-2.48-5.77-2.48s-4.18,1.15-5.76,2.48c-1.78,1.5-3.79,3.19-7.7,3.19-.83,0-1.5-.67-1.5-1.5s.67-1.5,1.5-1.5c2.82,0,4.18-1.15,5.76-2.48,1.78-1.49,3.79-3.19,7.7-3.19s5.93,1.7,7.7,3.19c1.58,1.33,2.95,2.48,5.77,2.48s4.18-1.15,5.76-2.48c1.77-1.49,3.78-3.19,7.69-3.19s5.92,1.7,7.7,3.19c1.58,1.33,2.94,2.48,5.76,2.48.83,0,1.5.67,1.5,1.5s-.67,1.5-1.5,1.5Zm-9.23-33.92c.12,2.74-.39,7-.7,9.21,1.79.62,3.03,1.66,4.17,2.62,1.58,1.33,2.94,2.48,5.76,2.48.83,0,1.5.67,1.5,1.5s-.67,1.5-1.5,1.5c-3.91,0-5.92-1.69-7.7-3.18-1-.85-1.92-1.62-3.17-2.08-.73-.26-1.56-.41-2.59-.41-1.26,0-2.22.23-3.06.6-1.02.47-1.83,1.15-2.7,1.89-.05.04-.1.09-.16.13-.08.08-.17.15-.25.23-1.84,1.71-3.92,3.64-6.74,3.67h-.61c-.22.02-.43.02-.63.02-2.64,0-4.07-.59-9.98-5.97-.06-.06-.13-.11-.2-.16-.72-.26-1.56-.41-2.59-.41-2.82,0-4.18,1.15-5.76,2.49-1.78,1.49-3.79,3.18-7.7,3.18-.83,0-1.5-.67-1.5-1.5s.67-1.5,1.5-1.5c2.82,0,4.18-1.15,5.76-2.48.72-.59,1.47-1.23,2.37-1.77l.48-.59s2.36-2.98,3.19-7.41c.33-1.72-.38-4.72-.84-6.27-2.02-1.04-8.85-4.63-13.14-7.8-2.59-1.92-8.72-6.95-10.71-12.91l-.19-.17v-.45c-.23-.78-.38-1.51-.46-2.22v-.18c-.01-1.27.35-2.53,1.02-3.62l.13-.18c1.28-1.93,3.4-3.07,5.71-3.07,1.45,0,2.85.45,4.01,1.29h.11l.54.54c.12.13.26.27.43.44l.31.32c2.79,2.83,15.56,15.21,24.61,14.35,10.4-1,20.19-17.9,22.39-23.61.86-2.22,2.45-6.34,6.78-6.34,3.69,0,6.81,2.8,6.82,6.11.01,3.93-4.58,17.98-9.17,23.42-4.7,5.59-7.16,8.13-8.38,9.28.92,1.92,2.72,6.02,2.84,9.01Z"/><path class="cls-4" d="m52.32,113.45c-1.02.47-1.83,1.15-2.7,1.89-.05.04-.1.09-.16.13.83-.77,1.62-1.47,2.31-1.8.18-.08.36-.16.55-.22Z"/><path class="cls-4" d="m70.34,133.63c0,.83-.67,1.5-1.5,1.5-3.91,0-5.92-1.69-7.7-3.19-1.58-1.33-2.94-2.48-5.76-2.48s-4.18,1.15-5.76,2.48c-1.77,1.5-3.78,3.19-7.69,3.19s-5.93-1.69-7.7-3.19c-1.58-1.33-2.95-2.48-5.77-2.48s-4.18,1.15-5.76,2.48c-1.78,1.5-3.79,3.19-7.7,3.19-.83,0-1.5-.67-1.5-1.5s.67-1.5,1.5-1.5c2.82,0,4.18-1.15,5.76-2.48,1.78-1.49,3.79-3.19,7.7-3.19s5.93,1.7,7.7,3.19c1.58,1.33,2.95,2.48,5.77,2.48s4.18-1.15,5.76-2.48c1.77-1.49,3.78-3.19,7.69-3.19s5.92,1.7,7.7,3.19c1.58,1.33,2.94,2.48,5.76,2.48.83,0,1.5.67,1.5,1.5Z"/><path d="m36.55,51.67c-6.5,0-11.79,5.3-11.79,11.8s5.29,11.79,11.79,11.79,11.8-5.29,11.8-11.79-5.29-11.8-11.8-11.8Zm0,20.59c-4.85,0-8.79-3.94-8.79-8.79s3.94-8.8,8.79-8.8,8.8,3.95,8.8,8.8-3.95,8.79-8.8,8.79Z"/><path class="cls-2" d="m45.35,63.47c0,4.85-3.95,8.79-8.8,8.79s-8.79-3.94-8.79-8.79,3.94-8.8,8.79-8.8,8.8,3.95,8.8,8.8Z"/><path class="cls-2" d="m50.49,110.96c-1.08.5-2.04,1.35-3.03,2.27.08-.06.15-.13.23-.19.99-.83,2.06-1.73,3.49-2.36-.23.08-.46.17-.69.28Z"/><path class="cls-4" d="m68.84,115.52c-2.82,0-4.18-1.15-5.76-2.48-1.14-.96-2.38-2-4.17-2.62.31-2.21.82-6.47.7-9.21-.12-2.99-1.92-7.09-2.84-9.01,1.22-1.15,3.68-3.69,8.38-9.28,4.59-5.44,9.18-19.49,9.17-23.42-.01-3.31-3.13-6.11-6.82-6.11-4.33,0-5.92,4.12-6.78,6.34-2.2,5.71-11.99,22.61-22.39,23.61-9.05.86-21.82-11.52-24.61-14.35l-.31-.32c-.17-.17-.31-.31-.43-.44l-.54-.54h-.11c-1.16-.84-2.56-1.29-4.01-1.29-2.31,0-4.43,1.14-5.71,3.07l-.13.18c-.67,1.09-1.03,2.35-1.03,3.62v.18c.09.71.24,1.44.47,2.22v.45l.19.17c1.99,5.96,8.12,10.99,10.71,12.91,4.29,3.17,11.12,6.76,13.14,7.8.46,1.55,1.17,4.55.84,6.27-.83,4.43-3.17,7.39-3.19,7.41l-.48.59c-.9.54-1.65,1.18-2.37,1.77-1.58,1.33-2.94,2.48-5.76,2.48-.83,0-1.5.67-1.5,1.5s.67,1.5,1.5,1.5c3.91,0,5.92-1.69,7.7-3.18,1.58-1.34,2.94-2.49,5.76-2.49,1.03,0,1.87.15,2.59.41.07.05.14.1.2.16,5.91,5.38,7.34,5.97,9.98,5.97.2,0,.41,0,.63-.01h.61c2.82-.04,4.9-1.97,6.74-3.68.08-.08.17-.15.25-.23.83-.77,1.62-1.47,2.31-1.8.18-.08.36-.16.55-.22.84-.37,1.8-.6,3.06-.6,1.03,0,1.86.15,2.59.41,1.25.46,2.17,1.23,3.17,2.08,1.78,1.49,3.79,3.18,7.7,3.18.83,0,1.5-.67,1.5-1.5s-.67-1.5-1.5-1.5Zm-12.88-5.65c-.19-.02-.38-.02-.58-.02-1.71,0-3.05.33-4.18.82t-.02.01c-1.43.63-2.5,1.53-3.49,2.36-.08.06-.15.13-.23.19-.1.09-.19.18-.29.27-1.51,1.4-3.07,2.85-4.73,2.87h-.65c-2.11.06-2.76.08-8.53-5.16-.25-.23-.52-.44-.8-.62-1.28-.82-2.76-1.08-4.11-1.08-.18,0-.36,0-.53.01.73-1.47,1.5-3.4,1.93-5.69.59-3.07-.95-7.82-1.12-8.35l-.2-.59-.55-.28c-.08-.04-8.51-4.3-13.28-7.83-1.85-1.36-7.94-6.19-9.68-11.52v-.42l-.17-.17c-.14-.52-.24-1.01-.3-1.48.01-.64.19-1.26.5-1.83l.1-.15c.72-1.13,1.94-1.81,3.27-1.81.94,0,1.81.32,2.52.93l.02.02c.09.1.23.24.4.42l.14.26.23.11c4,4.05,16.87,16.15,26.99,15.18,12.85-1.23,23.06-20.75,24.9-25.51,1.26-3.27,2.31-4.42,3.98-4.42,1.8,0,3.81,1.28,3.82,3.12.01,3.02-4.19,16.41-8.46,21.48-6.89,8.18-8.73,9.55-8.77,9.58l-1.14.75.63,1.21c.81,1.53,2.92,6.09,3.03,8.8.11,2.43-.37,6.38-.65,8.54Z"/><path class="cls-4" d="m50.49,110.96c-1.08.5-2.04,1.35-3.03,2.27.08-.06.15-.13.23-.19.99-.83,2.06-1.73,3.49-2.36-.23.08-.46.17-.69.28Z"/><path class="cls-2" d="m54.09,90.57l-1.14.75.63,1.21c.81,1.53,2.92,6.09,3.03,8.8.11,2.43-.37,6.38-.65,8.54-.19-.02-.38-.02-.58-.02-1.71,0-3.05.33-4.18.82t-.02.01c-.23.08-.46.17-.69.28-1.08.5-2.04,1.35-3.03,2.27-.1.09-.19.18-.29.27-1.51,1.4-3.07,2.85-4.73,2.87h-.65c-2.11.06-2.76.08-8.53-5.16-.25-.23-.52-.44-.8-.62-1.28-.82-2.76-1.08-4.11-1.08-.18,0-.36,0-.53.01.73-1.47,1.5-3.4,1.93-5.69.59-3.07-.95-7.82-1.12-8.35l-.2-.59-.55-.28c-.08-.04-8.51-4.3-13.28-7.83-1.85-1.36-7.94-6.19-9.68-11.52v-.42l-.17-.17c-.14-.52-.24-1.01-.3-1.48.01-.64.19-1.26.5-1.83l.1-.15c.72-1.13,1.94-1.81,3.27-1.81.94,0,1.81.32,2.52.93l.02.02c.09.1.23.24.4.42l.14.26.23.11c4,4.05,16.87,16.15,26.99,15.18,12.85-1.23,23.06-20.75,24.9-25.51,1.26-3.27,2.31-4.42,3.98-4.42,1.8,0,3.81,1.28,3.82,3.12.01,3.02-4.19,16.41-8.46,21.48-6.89,8.18-8.73,9.55-8.77,9.58Z"/></g></svg>