<?xml version="1.0" encoding="UTF-8"?><svg id="Ebene_2" xmlns="http://www.w3.org/2000/svg" viewBox="0 0 100.86 149.79"><defs><style>.cls-1{fill:none;}.cls-2{fill:#fff;}.cls-3{fill:#ffcf02;}.cls-4{fill:#1d1d1b;}</style></defs><g id="Ebene_1-2"><circle class="cls-3" cx="44.36" cy="88.08" r="44.36"/><path class="cls-1" d="m37.58,93.78l-2.49-4.11s-.1.01-.15.01c-.28.05-.57.07-.86.09-.3.02-.61.04-.92.04h-.11l-2.25,4.11c-.09.16-.03.39.04.51.12-.06.34-.18.52-.28l.1-.05c.8-.39,1.65-.6,2.52-.64.08-.01.17-.01.25-.01.91,0,1.82.16,2.68.53l.09.04c.18.1.41.2.55.26.07-.11.12-.35.03-.5Zm0,0l-2.49-4.11s-.1.01-.15.01c-.28.05-.57.07-.86.09-.3.02-.61.04-.92.04h-.11l-2.25,4.11c-.09.16-.03.39.04.51.12-.06.34-.18.52-.28l.1-.05c.8-.39,1.65-.6,2.52-.64.08-.01.17-.01.25-.01.91,0,1.82.16,2.68.53l.09.04c.18.1.41.2.55.26.07-.11.12-.35.03-.5Zm0,0l-2.49-4.11s-.1.01-.15.01c-.28.05-.57.07-.86.09-.3.02-.61.04-.92.04h-.11l-2.25,4.11c-.09.16-.03.39.04.51.12-.06.34-.18.52-.28l.1-.05c.8-.39,1.65-.6,2.52-.64.08-.01.17-.01.25-.01.91,0,1.82.16,2.68.53l.09.04c.18.1.41.2.55.26.07-.11.12-.35.03-.5Zm-4.6-45.13c-7.83,0-14.2,6.37-14.2,14.2s4.52,23.22,13.52,23.93c.26.02.52.03.78.03.83,0,1.68-.09,2.44-.27,3.12-.67,5.41-2.61,7.08-5.11.67-.99,1.24-2.07,1.72-3.19,2.73-6.32,2.85-14.06,2.85-15.39,0-7.83-6.36-14.2-14.19-14.2Zm0,0c-7.83,0-14.2,6.37-14.2,14.2s4.52,23.22,13.52,23.93c.26.02.52.03.78.03.83,0,1.68-.09,2.44-.27,3.12-.67,5.41-2.61,7.08-5.11.67-.99,1.24-2.07,1.72-3.19,2.73-6.32,2.85-14.06,2.85-15.39,0-7.83-6.36-14.2-14.19-14.2Zm4.6,45.13l-2.49-4.11s-.1.01-.15.01c-.28.05-.57.07-.86.09-.3.02-.61.04-.92.04h-.11l-2.25,4.11c-.09.16-.03.39.04.51.12-.06.34-.18.52-.28l.1-.05c.8-.39,1.65-.6,2.52-.64.08-.01.17-.01.25-.01.91,0,1.82.16,2.68.53l.09.04c.18.1.41.2.55.26.07-.11.12-.35.03-.5Zm0,0l-2.49-4.11s-.1.01-.15.01c-.28.05-.57.07-.86.09-.3.02-.61.04-.92.04h-.11l-2.25,4.11c-.09.16-.03.39.04.51.12-.06.34-.18.52-.28l.1-.05c.8-.39,1.65-.6,2.52-.64.08-.01.17-.01.25-.01.91,0,1.82.16,2.68.53l.09.04c.18.1.41.2.55.26.07-.11.12-.35.03-.5Zm-4.6-45.13c-7.83,0-14.2,6.37-14.2,14.2s4.52,23.22,13.52,23.93c.26.02.52.03.78.03.83,0,1.68-.09,2.44-.27,3.12-.67,5.41-2.61,7.08-5.11.67-.99,1.24-2.07,1.72-3.19,2.73-6.32,2.85-14.06,2.85-15.39,0-7.83-6.36-14.2-14.19-14.2Zm25.56,25.05c-4.78,0-9.02,2.38-11.59,6.01-.49,1.11-1.04,2.14-1.65,3.07-.62,1.59-.96,3.31-.96,5.12,0,8.08,4.38,22.76,13.1,23.9l.42.04c.25.02.49.03.75.03.84,0,1.7-.1,2.47-.27,11.33-2.42,11.65-21.53,11.65-23.7,0-7.83-6.36-14.2-14.19-14.2Zm0,0c-4.78,0-9.02,2.38-11.59,6.01-.49,1.11-1.04,2.14-1.65,3.07-.62,1.59-.96,3.31-.96,5.12,0,8.08,4.38,22.76,13.1,23.9l.42.04c.25.02.49.03.75.03.84,0,1.7-.1,2.47-.27,11.33-2.42,11.65-21.53,11.65-23.7,0-7.83-6.36-14.2-14.19-14.2Zm-25.56-25.05c-7.83,0-14.2,6.37-14.2,14.2s4.52,23.22,13.52,23.93c.26.02.52.03.78.03.83,0,1.68-.09,2.44-.27,3.12-.67,5.41-2.61,7.08-5.11.67-.99,1.24-2.07,1.72-3.19,2.73-6.32,2.85-14.06,2.85-15.39,0-7.83-6.36-14.2-14.19-14.2Zm4.6,45.13l-2.49-4.11s-.1.01-.15.01c-.28.05-.57.07-.86.09-.3.02-.61.04-.92.04h-.11l-2.25,4.11c-.09.16-.03.39.04.51.12-.06.34-.18.52-.28l.1-.05c.8-.39,1.65-.6,2.52-.64.08-.01.17-.01.25-.01.91,0,1.82.16,2.68.53l.09.04c.18.1.41.2.55.26.07-.11.12-.35.03-.5Zm0,0l-2.49-4.11s-.1.01-.15.01c-.28.05-.57.07-.86.09-.3.02-.61.04-.92.04h-.11l-2.25,4.11c-.09.16-.03.39.04.51.12-.06.34-.18.52-.28l.1-.05c.8-.39,1.65-.6,2.52-.64.08-.01.17-.01.25-.01.91,0,1.82.16,2.68.53l.09.04c.18.1.41.2.55.26.07-.11.12-.35.03-.5Zm-4.6-45.13c-7.83,0-14.2,6.37-14.2,14.2s4.52,23.22,13.52,23.93c.26.02.52.03.78.03.83,0,1.68-.09,2.44-.27,3.12-.67,5.41-2.61,7.08-5.11.67-.99,1.24-2.07,1.72-3.19,2.73-6.32,2.85-14.06,2.85-15.39,0-7.83-6.36-14.2-14.19-14.2Zm30.16,70.19l-2.49-4.12s-.1.01-.15.01c-.04.01-.08.02-.12.02-.24.03-.49.06-.74.07-.3.02-.61.04-.92.04h-.11l-2.25,4.12c-.09.15-.03.39.04.5.12-.05.34-.17.52-.27l.1-.06c.92-.44,1.92-.66,2.93-.65h.02c.23,0,.48.02.71.06h.03c.6.08,1.19.23,1.76.48l.09.04c.18.1.41.2.55.26.07-.12.12-.35.03-.5Zm-4.6-45.14c-4.78,0-9.02,2.38-11.59,6.01-.49,1.11-1.04,2.14-1.65,3.07-.62,1.59-.96,3.31-.96,5.12,0,8.08,4.38,22.76,13.1,23.9l.42.04c.25.02.49.03.75.03.84,0,1.7-.1,2.47-.27,11.33-2.42,11.65-21.53,11.65-23.7,0-7.83-6.36-14.2-14.19-14.2Zm0,0c-4.78,0-9.02,2.38-11.59,6.01-.49,1.11-1.04,2.14-1.65,3.07-.62,1.59-.96,3.31-.96,5.12,0,8.08,4.38,22.76,13.1,23.9l.42.04c.25.02.49.03.75.03.84,0,1.7-.1,2.47-.27,11.33-2.42,11.65-21.53,11.65-23.7,0-7.83-6.36-14.2-14.19-14.2Zm4.6,45.14l-2.49-4.12s-.1.01-.15.01c-.04.01-.08.02-.12.02-.24.03-.49.06-.74.07-.3.02-.61.04-.92.04h-.11l-2.25,4.12c-.09.15-.03.39.04.5.12-.05.34-.17.52-.27l.1-.06c.92-.44,1.92-.66,2.93-.65h.02c.23,0,.48.02.71.06h.03c.6.08,1.19.23,1.76.48l.09.04c.18.1.41.2.55.26.07-.12.12-.35.03-.5Zm-30.16-70.19c-7.83,0-14.2,6.37-14.2,14.2s4.52,23.22,13.52,23.93c.26.02.52.03.78.03.83,0,1.68-.09,2.44-.27,3.12-.67,5.41-2.61,7.08-5.11.67-.99,1.24-2.07,1.72-3.19,2.73-6.32,2.85-14.06,2.85-15.39,0-7.83-6.36-14.2-14.19-14.2Zm4.6,45.13l-2.49-4.11s-.1.01-.15.01c-.28.05-.57.07-.86.09-.3.02-.61.04-.92.04h-.11l-2.25,4.11c-.09.16-.03.39.04.51.12-.06.34-.18.52-.28l.1-.05c.8-.39,1.65-.6,2.52-.64.08-.01.17-.01.25-.01.91,0,1.82.16,2.68.53l.09.04c.18.1.41.2.55.26.07-.11.12-.35.03-.5Zm0,0l-2.49-4.11s-.1.01-.15.01c-.28.05-.57.07-.86.09-.3.02-.61.04-.92.04h-.11l-2.25,4.11c-.09.16-.03.39.04.51.12-.06.34-.18.52-.28l.1-.05c.8-.39,1.65-.6,2.52-.64.08-.01.17-.01.25-.01.91,0,1.82.16,2.68.53l.09.04c.18.1.41.2.55.26.07-.11.12-.35.03-.5Zm-4.6-45.13c-7.83,0-14.2,6.37-14.2,14.2s4.52,23.22,13.52,23.93c.26.02.52.03.78.03.83,0,1.68-.09,2.44-.27,3.12-.67,5.41-2.61,7.08-5.11.67-.99,1.24-2.07,1.72-3.19,2.73-6.32,2.85-14.06,2.85-15.39,0-7.83-6.36-14.2-14.19-14.2Zm30.16,70.19l-2.49-4.12s-.1.01-.15.01c-.04.01-.08.02-.12.02-.24.03-.49.06-.74.07-.3.02-.61.04-.92.04h-.11l-2.25,4.12c-.09.15-.03.39.04.5.12-.05.34-.17.52-.27l.1-.06c.92-.44,1.92-.66,2.93-.65h.02c.23,0,.48.02.71.06h.03c.6.08,1.19.23,1.76.48l.09.04c.18.1.41.2.55.26.07-.12.12-.35.03-.5Zm-4.6-45.14c-4.78,0-9.02,2.38-11.59,6.01-.49,1.11-1.04,2.14-1.65,3.07-.62,1.59-.96,3.31-.96,5.12,0,8.08,4.38,22.76,13.1,23.9l.42.04c.25.02.49.03.75.03.84,0,1.7-.1,2.47-.27,11.33-2.42,11.65-21.53,11.65-23.7,0-7.83-6.36-14.2-14.19-14.2Zm0,0c-4.78,0-9.02,2.38-11.59,6.01-.49,1.11-1.04,2.14-1.65,3.07-.62,1.59-.96,3.31-.96,5.12,0,8.08,4.38,22.76,13.1,23.9l.42.04c.25.02.49.03.75.03.84,0,1.7-.1,2.47-.27,11.33-2.42,11.65-21.53,11.65-23.7,0-7.83-6.36-14.2-14.19-14.2Zm2.11,41.02s-.1.01-.15.01c-.04.01-.08.02-.12.02-.24.03-.49.06-.74.07-.3.02-.61.04-.92.04h-.11l-2.25,4.12c-.09.15-.03.39.04.5.12-.05.34-.17.52-.27l.1-.06c.92-.44,1.92-.66,2.93-.65h.02c.23,0,.48.02.71.06h.03c.6.08,1.19.23,1.76.48l.09.04c.18.1.41.2.55.26.07-.12.12-.35.03-.5l-2.49-4.12Zm-27.67-66.07c-7.83,0-14.2,6.37-14.2,14.2s4.52,23.22,13.52,23.93c.26.02.52.03.78.03.83,0,1.68-.09,2.44-.27,3.12-.67,5.41-2.61,7.08-5.11.67-.99,1.24-2.07,1.72-3.19,2.73-6.32,2.85-14.06,2.85-15.39,0-7.83-6.36-14.2-14.19-14.2Zm2.11,41.02s-.1.01-.15.01c-.28.05-.57.07-.86.09-.3.02-.61.04-.92.04h-.11l-2.25,4.11c-.09.16-.03.39.04.51.12-.06.34-.18.52-.28l.1-.05c.8-.39,1.65-.6,2.52-.64.08-.01.17-.01.25-.01.91,0,1.82.16,2.68.53l.09.04c.18.1.41.2.55.26.07-.11.12-.35.03-.5l-2.49-4.11ZM0,0v149.79h100.86V0H0Zm18.75,108.19c0-1.52,1.23-2.75,2.75-2.75s2.74,1.23,2.74,2.75-1.23,2.74-2.74,2.74-2.75-1.23-2.75-2.74Zm46.96,9.09c.69,1.14.64,2.66-.15,3.79-.68.99-1.81,1.47-2.95,1.25-.32-.06-.78-.24-1.37-.54-.09-.04-.18-.07-.27-.09-1.1,2.12-1.2,3.43-1.08,4.18.07.41.65,1,1.21,1.58,1.14,1.17,2.69,2.77,2.75,5.36.05,2.56-.79,4.18-1.54,5.61-.62,1.19-1.1,2.13-1.06,3.54.03.82-.62,1.52-1.45,1.54h-.05c-.8,0-1.47-.64-1.5-1.45-.07-2.19.71-3.69,1.4-5.01.67-1.27,1.24-2.37,1.2-4.17-.03-1.41-.9-2.3-1.9-3.33-.88-.91-1.79-1.85-2.02-3.18-.19-1.2-.02-2.56.52-4.07-.16.07-.31.12-.43.15-.22.05-.44.08-.66.08-.88,0-1.73-.43-2.32-1.19-.84-1.1-.96-2.63-.31-3.8l1.7-3.1c-9.81-2.79-14.09-18.45-14.09-26.53,0-.27.01-.54.02-.8-1,.75-2.08,1.35-3.23,1.79l2.02,3.33c.69,1.14.64,2.67-.15,3.79-.68.98-1.8,1.46-2.93,1.25.56,1.45.77,2.78.61,3.96-.17,1.34-1.05,2.3-1.9,3.24-.97,1.07-1.81,1.99-1.79,3.4.02,1.36.86,2.03,2.35,3.11,1.47,1.05,3.29,2.37,3.3,4.93,0,2.75-1.42,4.35-2.67,5.77-1.14,1.28-2.12,2.39-2.36,4.43-.25,2.19.56,3.7,1.86,5.28.53.65.44,1.59-.2,2.12-.28.23-.62.34-.96.34-.43,0-.86-.19-1.16-.55-1.47-1.79-2.92-4.09-2.52-7.54.35-2.97,1.87-4.69,3.1-6.07,1.11-1.26,1.91-2.16,1.91-3.77,0-.94-.63-1.48-2.05-2.51-1.5-1.08-3.56-2.56-3.6-5.51-.03-2.58,1.47-4.24,2.57-5.45.54-.59,1.09-1.2,1.15-1.61.1-.78-.07-2.12-1.29-4.26-.21.04-.41.12-.61.21-.58.33-1.03.53-1.35.6-.22.06-.44.08-.66.08-.88,0-1.74-.42-2.32-1.19-.84-1.1-.96-2.62-.31-3.8l1.7-3.1c-9.81-2.79-14.09-18.44-14.09-26.52,0-9.49,7.72-17.2,17.2-17.2s17.19,7.71,17.19,17.2c0,1.93-.14,6.17-1.21,10.77,2.74-1.84,6.04-2.92,9.58-2.92,9.48,0,17.19,7.72,17.19,17.2,0,2.56-.25,9.16-2.55,15.27-2.07,5.5-5.33,9.18-9.49,10.77l2.02,3.34Zm-7.17-43.58c-4.78,0-9.02,2.38-11.59,6.01-.49,1.11-1.04,2.14-1.65,3.07-.62,1.59-.96,3.31-.96,5.12,0,8.08,4.38,22.76,13.1,23.9l.42.04c.25.02.49.03.75.03.84,0,1.7-.1,2.47-.27,11.33-2.42,11.65-21.53,11.65-23.7,0-7.83-6.36-14.2-14.19-14.2Zm2.11,41.02s-.1.01-.15.01c-.04.01-.08.02-.12.02-.24.03-.49.06-.74.07-.3.02-.61.04-.92.04h-.11l-2.25,4.12c-.09.15-.03.39.04.5.12-.05.34-.17.52-.27l.1-.06c.92-.44,1.92-.66,2.93-.65h.02c.23,0,.48.02.71.06h.03c.6.08,1.19.23,1.76.48l.09.04c.18.1.41.2.55.26.07-.12.12-.35.03-.5l-2.49-4.12Zm-27.67-66.07c-7.83,0-14.2,6.37-14.2,14.2s4.52,23.22,13.52,23.93c.26.02.52.03.78.03.83,0,1.68-.09,2.44-.27,3.12-.67,5.41-2.61,7.08-5.11.67-.99,1.24-2.07,1.72-3.19,2.73-6.32,2.85-14.06,2.85-15.39,0-7.83-6.36-14.2-14.19-14.2Zm2.11,41.02s-.1.01-.15.01c-.28.05-.57.07-.86.09-.3.02-.61.04-.92.04h-.11l-2.25,4.11c-.09.16-.03.39.04.51.12-.06.34-.18.52-.28l.1-.05c.8-.39,1.65-.6,2.52-.64.08-.01.17-.01.25-.01.91,0,1.82.16,2.68.53l.09.04c.18.1.41.2.55.26.07-.11.12-.35.03-.5l-2.49-4.11Zm2.49,4.11l-2.49-4.11s-.1.01-.15.01c-.28.05-.57.07-.86.09-.3.02-.61.04-.92.04h-.11l-2.25,4.11c-.09.16-.03.39.04.51.12-.06.34-.18.52-.28l.1-.05c.8-.39,1.65-.6,2.52-.64.08-.01.17-.01.25-.01.91,0,1.82.16,2.68.53l.09.04c.18.1.41.2.55.26.07-.11.12-.35.03-.5Zm-4.6-45.13c-7.83,0-14.2,6.37-14.2,14.2s4.52,23.22,13.52,23.93c.26.02.52.03.78.03.83,0,1.68-.09,2.44-.27,3.12-.67,5.41-2.61,7.08-5.11.67-.99,1.24-2.07,1.72-3.19,2.73-6.32,2.85-14.06,2.85-15.39,0-7.83-6.36-14.2-14.19-14.2Zm30.16,70.19l-2.49-4.12s-.1.01-.15.01c-.04.01-.08.02-.12.02-.24.03-.49.06-.74.07-.3.02-.61.04-.92.04h-.11l-2.25,4.12c-.09.15-.03.39.04.5.12-.05.34-.17.52-.27l.1-.06c.92-.44,1.92-.66,2.93-.65h.02c.23,0,.48.02.71.06h.03c.6.08,1.19.23,1.76.48l.09.04c.18.1.41.2.55.26.07-.12.12-.35.03-.5Zm-4.6-45.14c-4.78,0-9.02,2.38-11.59,6.01-.49,1.11-1.04,2.14-1.65,3.07-.62,1.59-.96,3.31-.96,5.12,0,8.08,4.38,22.76,13.1,23.9l.42.04c.25.02.49.03.75.03.84,0,1.7-.1,2.47-.27,11.33-2.42,11.65-21.53,11.65-23.7,0-7.83-6.36-14.2-14.19-14.2Zm0,0c-4.78,0-9.02,2.38-11.59,6.01-.49,1.11-1.04,2.14-1.65,3.07-.62,1.59-.96,3.31-.96,5.12,0,8.08,4.38,22.76,13.1,23.9l.42.04c.25.02.49.03.75.03.84,0,1.7-.1,2.47-.27,11.33-2.42,11.65-21.53,11.65-23.7,0-7.83-6.36-14.2-14.19-14.2Zm4.6,45.14l-2.49-4.12s-.1.01-.15.01c-.04.01-.08.02-.12.02-.24.03-.49.06-.74.07-.3.02-.61.04-.92.04h-.11l-2.25,4.12c-.09.15-.03.39.04.5.12-.05.34-.17.52-.27l.1-.06c.92-.44,1.92-.66,2.93-.65h.02c.23,0,.48.02.71.06h.03c.6.08,1.19.23,1.76.48l.09.04c.18.1.41.2.55.26.07-.12.12-.35.03-.5Zm-30.16-70.19c-7.83,0-14.2,6.37-14.2,14.2s4.52,23.22,13.52,23.93c.26.02.52.03.78.03.83,0,1.68-.09,2.44-.27,3.12-.67,5.41-2.61,7.08-5.11.67-.99,1.24-2.07,1.72-3.19,2.73-6.32,2.85-14.06,2.85-15.39,0-7.83-6.36-14.2-14.19-14.2Zm4.6,45.13l-2.49-4.11s-.1.01-.15.01c-.28.05-.57.07-.86.09-.3.02-.61.04-.92.04h-.11l-2.25,4.11c-.09.16-.03.39.04.51.12-.06.34-.18.52-.28l.1-.05c.8-.39,1.65-.6,2.52-.64.08-.01.17-.01.25-.01.91,0,1.82.16,2.68.53l.09.04c.18.1.41.2.55.26.07-.11.12-.35.03-.5Zm0,0l-2.49-4.11s-.1.01-.15.01c-.28.05-.57.07-.86.09-.3.02-.61.04-.92.04h-.11l-2.25,4.11c-.09.16-.03.39.04.51.12-.06.34-.18.52-.28l.1-.05c.8-.39,1.65-.6,2.52-.64.08-.01.17-.01.25-.01.91,0,1.82.16,2.68.53l.09.04c.18.1.41.2.55.26.07-.11.12-.35.03-.5Zm-4.6-45.13c-7.83,0-14.2,6.37-14.2,14.2s4.52,23.22,13.52,23.93c.26.02.52.03.78.03.83,0,1.68-.09,2.44-.27,3.12-.67,5.41-2.61,7.08-5.11.67-.99,1.24-2.07,1.72-3.19,2.73-6.32,2.85-14.06,2.85-15.39,0-7.83-6.36-14.2-14.19-14.2Zm30.16,70.19l-2.49-4.12s-.1.01-.15.01c-.04.01-.08.02-.12.02-.24.03-.49.06-.74.07-.3.02-.61.04-.92.04h-.11l-2.25,4.12c-.09.15-.03.39.04.5.12-.05.34-.17.52-.27l.1-.06c.92-.44,1.92-.66,2.93-.65h.02c.23-.04.47-.03.71.06h.03c.6.08,1.19.23,1.76.48l.09.04c.18.1.41.2.55.26.07-.12.12-.35.03-.5Zm-4.6-45.14c-4.78,0-9.02,2.38-11.59,6.01-.49,1.11-1.04,2.14-1.65,3.07-.62,1.59-.96,3.31-.96,5.12,0,8.08,4.38,22.76,13.1,23.9l.42.04c.25.02.49.03.75.03.84,0,1.7-.1,2.47-.27,11.33-2.42,11.65-21.53,11.65-23.7,0-7.83-6.36-14.2-14.19-14.2Zm0,0c-4.78,0-9.02,2.38-11.59,6.01-.49,1.11-1.04,2.14-1.65,3.07-.62,1.59-.96,3.31-.96,5.12,0,8.08,4.38,22.76,13.1,23.9l.42.04c.25.02.49.03.75.03.84,0,1.7-.1,2.47-.27,11.33-2.42,11.65-21.53,11.65-23.7,0-7.83-6.36-14.2-14.19-14.2Zm-25.56-25.05c-7.83,0-14.2,6.37-14.2,14.2s4.52,23.22,13.52,23.93c.26.02.52.03.78.03.83,0,1.68-.09,2.44-.27,3.12-.67,5.41-2.61,7.08-5.11.67-.99,1.24-2.07,1.72-3.19,2.73-6.32,2.85-14.06,2.85-15.39,0-7.83-6.36-14.2-14.19-14.2Zm4.6,45.13l-2.49-4.11s-.1.01-.15.01c-.28.05-.57.07-.86.09-.3.02-.61.04-.92.04h-.11l-2.25,4.11c-.09.16-.03.39.04.51.12-.06.34-.18.52-.28l.1-.05c.8-.39,1.65-.6,2.52-.64.08-.01.17-.01.25-.01.91,0,1.82.16,2.68.53l.09.04c.18.1.41.2.55.26.07-.11.12-.35.03-.5Zm0,0l-2.49-4.11s-.1.01-.15.01c-.28.05-.57.07-.86.09-.3.02-.61.04-.92.04h-.11l-2.25,4.11c-.09.16-.03.39.04.51.12-.06.34-.18.52-.28l.1-.05c.8-.39,1.65-.6,2.52-.64.08-.01.17-.01.25-.01.91,0,1.82.16,2.68.53l.09.04c.18.1.41.2.55.26.07-.11.12-.35.03-.5Zm-4.6-45.13c-7.83,0-14.2,6.37-14.2,14.2s4.52,23.22,13.52,23.93c.26.02.52.03.78.03.83,0,1.68-.09,2.44-.27,3.12-.67,5.41-2.61,7.08-5.11.67-.99,1.24-2.07,1.72-3.19,2.73-6.32,2.85-14.06,2.85-15.39,0-7.83-6.36-14.2-14.19-14.2Zm25.56,25.05c-4.78,0-9.02,2.38-11.59,6.01-.49,1.11-1.04,2.14-1.65,3.07-.62,1.59-.96,3.31-.96,5.12,0,8.08,4.38,22.76,13.1,23.9l.42.04c.25.02.49.03.75.03.84,0,1.7-.1,2.47-.27,11.33-2.42,11.65-21.53,11.65-23.7,0-7.83-6.36-14.2-14.19-14.2Zm-25.56-25.05c-7.83,0-14.2,6.37-14.2,14.2s4.52,23.22,13.52,23.93c.26.02.52.03.78.03.83,0,1.68-.09,2.44-.27,3.12-.67,5.41-2.61,7.08-5.11.67-.99,1.24-2.07,1.72-3.19,2.73-6.32,2.85-14.06,2.85-15.39,0-7.83-6.36-14.2-14.19-14.2Zm4.6,45.13l-2.49-4.11s-.1.01-.15.01c-.28.05-.57.07-.86.09-.3.02-.61.04-.92.04h-.11l-2.25,4.11c-.09.16-.03.39.04.51.12-.06.34-.18.52-.28l.1-.05c.8-.39,1.65-.6,2.52-.64.08-.01.17-.01.25-.01.91,0,1.82.16,2.68.53l.09.04c.18.1.41.2.55.26.07-.11.12-.35.03-.5Zm0,0l-2.49-4.11s-.1.01-.15.01c-.28.05-.57.07-.86.09-.3.02-.61.04-.92.04h-.11l-2.25,4.11c-.09.16-.03.39.04.51.12-.06.34-.18.52-.28l.1-.05c.8-.39,1.65-.6,2.52-.64.08-.01.17-.01.25-.01.91,0,1.82.16,2.68.53l.09.04c.18.1.41.2.55.26.07-.11.12-.35.03-.5Zm-4.6-45.13c-7.83,0-14.2,6.37-14.2,14.2s4.52,23.22,13.52,23.93c.26.02.52.03.78.03.83,0,1.68-.09,2.44-.27,3.12-.67,5.41-2.61,7.08-5.11.67-.99,1.24-2.07,1.72-3.19,2.73-6.32,2.85-14.06,2.85-15.39,0-7.83-6.36-14.2-14.19-14.2Zm0,0c-7.83,0-14.2,6.37-14.2,14.2s4.52,23.22,13.52,23.93c.26.02.52.03.78.03.83,0,1.68-.09,2.44-.27,3.12-.67,5.41-2.61,7.08-5.11.67-.99,1.24-2.07,1.72-3.19,2.73-6.32,2.85-14.06,2.85-15.39,0-7.83-6.36-14.2-14.19-14.2Zm4.6,45.13l-2.49-4.11s-.1.01-.15.01c-.28.05-.57.07-.86.09-.3.02-.61.04-.92.04h-.11l-2.25,4.11c-.09.16-.03.39.04.51.12-.06.34-.18.52-.28l.1-.05c.8-.39,1.65-.6,2.52-.64.08-.01.17-.01.25-.01.91,0,1.82.16,2.68.53l.09.04c.18.1.41.2.55.26.07-.11.12-.35.03-.5Zm0,0l-2.49-4.11s-.1.01-.15.01c-.28.05-.57.07-.86.09-.3.02-.61.04-.92.04h-.11l-2.25,4.11c-.09.16-.03.39.04.51.12-.06.34-.18.52-.28l.1-.05c.8-.39,1.65-.6,2.52-.64.08-.01.17-.01.25-.01.91,0,1.82.16,2.68.53l.09.04c.18.1.41.2.55.26.07-.11.12-.35.03-.5Zm0,0l-2.49-4.11s-.1.01-.15.01c-.28.05-.57.07-.86.09-.3.02-.61.04-.92.04h-.11l-2.25,4.11c-.09.16-.03.39.04.51.12-.06.34-.18.52-.28l.1-.05c.8-.39,1.65-.6,2.52-.64.08-.01.17-.01.25-.01.91,0,1.82.16,2.68.53l.09.04c.18.1.41.2.55.26.07-.11.12-.35.03-.5Z"/><path class="cls-4" d="m58.54,70.7c-3.54,0-6.84,1.08-9.58,2.92,1.07-4.6,1.21-8.84,1.21-10.77,0-9.49-7.71-17.2-17.19-17.2s-17.2,7.71-17.2,17.2c0,8.08,4.28,23.73,14.09,26.52l-1.7,3.1c-.65,1.18-.53,2.7.31,3.8.58.77,1.44,1.19,2.32,1.19.22,0,.44-.02.66-.08.32-.07.77-.27,1.35-.6.2-.09.4-.17.61-.21,1.22,2.14,1.39,3.48,1.29,4.26-.06.41-.61,1.02-1.15,1.61-1.1,1.21-2.6,2.87-2.57,5.45.04,2.95,2.1,4.43,3.6,5.51,1.42,1.03,2.05,1.57,2.05,2.51,0,1.61-.8,2.51-1.91,3.77-1.23,1.38-2.75,3.1-3.1,6.07-.4,3.45,1.05,5.75,2.52,7.54.3.36.73.55,1.16.55.34,0,.68-.11.96-.34.64-.53.73-1.47.2-2.12-1.3-1.58-2.11-3.09-1.86-5.28.24-2.04,1.22-3.15,2.36-4.43,1.25-1.42,2.67-3.02,2.67-5.77-.01-2.56-1.83-3.88-3.3-4.93-1.49-1.08-2.33-1.75-2.35-3.11-.02-1.41.82-2.33,1.79-3.4.85-.94,1.73-1.9,1.9-3.24.16-1.18-.05-2.51-.61-3.96,1.13.21,2.25-.27,2.93-1.25.79-1.12.84-2.65.15-3.79l-2.02-3.33c1.15-.44,2.23-1.04,3.23-1.79-.01.26-.02.53-.02.8,0,8.08,4.28,23.74,14.09,26.53l-1.7,3.1c-.65,1.17-.53,2.7.31,3.8.59.76,1.44,1.19,2.32,1.19.22,0,.44-.03.66-.08.12-.03.27-.08.43-.15-.54,1.51-.71,2.87-.52,4.07.23,1.33,1.14,2.27,2.02,3.18,1,1.03,1.87,1.92,1.9,3.33.04,1.8-.53,2.9-1.2,4.17-.69,1.32-1.47,2.82-1.4,5.01.03.81.7,1.45,1.5,1.45h.05c.83-.02,1.48-.72,1.45-1.54-.04-1.41.44-2.35,1.06-3.54.75-1.43,1.59-3.05,1.54-5.61-.06-2.59-1.61-4.19-2.75-5.36-.56-.58-1.14-1.17-1.21-1.58-.12-.75-.02-2.06,1.08-4.18.09.02.18.05.27.09.59.3,1.05.48,1.37.54,1.14.22,2.27-.26,2.95-1.25.79-1.13.84-2.65.15-3.79l-2.02-3.34c4.16-1.59,7.42-5.27,9.49-10.77,2.3-6.11,2.55-12.71,2.55-15.27,0-9.48-7.71-17.2-17.19-17.2Zm-20.99,23.58c-.14-.06-.37-.16-.55-.26l-.09-.04c-.86-.37-1.77-.54-2.68-.53-.08,0-.17,0-.25.01-.87.04-1.72.25-2.52.64l-.1.05c-.18.1-.4.22-.52.28-.07-.12-.13-.35-.04-.51l2.25-4.11h.11c.31,0,.62-.02.92-.04.29-.02.58-.04.86-.09.05,0,.1,0,.15-.01l2.49,4.11c.09.15.04.39-.03.5Zm5.05-12.85c-1.67,2.5-3.96,4.44-7.08,5.11-.76.18-1.61.28-2.44.27-.26,0-.52-.01-.78-.03-9-.71-13.52-15.73-13.52-23.93s6.37-14.2,14.2-14.2,14.19,6.37,14.19,14.2c0,1.33-.12,9.07-2.85,15.39-.48,1.12-1.05,2.2-1.72,3.19Zm20.51,37.91c-.14-.06-.37-.16-.55-.26l-.09-.04c-.57-.25-1.16-.4-1.76-.48h-.03c-.23-.04-.48-.06-.71-.06h-.02c-1.01-.01-2.01.21-2.93.65l-.1.06c-.18.1-.4.22-.52.27-.07-.11-.13-.35-.04-.5l2.25-4.12h.11c.31,0,.62-.02.92-.04.25,0,.5-.04.74-.07.04,0,.08-.01.12-.02.05,0,.1,0,.15-.01l2.49,4.12c.09.15.04.38-.03.5Zm-2.03-7.74c-.77.17-1.63.27-2.47.27-.26,0-.5-.01-.75-.03l-.42-.04c-8.72-1.14-13.1-15.82-13.1-23.9,0-1.81.34-3.53.96-5.12.61-.93,1.16-1.96,1.65-3.07,2.57-3.63,6.81-6.01,11.59-6.01,7.83,0,14.19,6.37,14.19,14.2,0,2.17-.32,21.28-11.65,23.7Z"/><path class="cls-2" d="m47.17,62.85c0,1.33-.12,9.07-2.85,15.39-.48,1.12-1.05,2.2-1.72,3.19-1.67,2.5-3.96,4.44-7.08,5.11-.76.18-1.61.28-2.44.27-.26,0-.52-.01-.78-.03-9-.71-13.52-15.73-13.52-23.93s6.37-14.2,14.2-14.2,14.19,6.37,14.19,14.2Z"/><path class="cls-2" d="m37.55,94.28c-.14-.06-.37-.16-.55-.26l-.09-.04c-.86-.37-1.77-.54-2.68-.53-.08,0-.17,0-.25.01-.87.04-1.72.25-2.52.64l-.1.05c-.18.1-.4.22-.52.28-.07-.12-.13-.35-.04-.51l2.25-4.11h.11c.31,0,.62-.02.92-.04.29-.02.58-.04.86-.09.05,0,.1,0,.15-.01l2.49,4.11c.09.15.04.39-.03.5Z"/><path class="cls-2" d="m72.73,87.9c0,2.17-.32,21.28-11.65,23.7-.77.17-1.63.27-2.47.27-.26,0-.5-.01-.75-.03l-.42-.04c-8.72-1.14-13.1-15.82-13.1-23.9,0-1.81.34-3.53.96-5.12.61-.93,1.16-1.96,1.65-3.07,2.57-3.63,6.81-6.01,11.59-6.01,7.83,0,14.19,6.37,14.19,14.2Z"/><path class="cls-2" d="m63.11,119.34c-.14-.06-.37-.16-.55-.26l-.09-.04c-.57-.25-1.16-.4-1.76-.48h-.03c-.23-.04-.48-.06-.71-.06h-.02c-1.01-.01-2.01.21-2.93.65l-.1.06c-.18.1-.4.22-.52.27-.07-.11-.13-.35-.04-.5l2.25-4.12h.11c.31,0,.62-.02.92-.04.25,0,.5-.04.74-.07.04,0,.08-.01.12-.02.05,0,.1,0,.15-.01l2.49,4.12c.09.15.04.38-.03.5Z"/><path class="cls-4" d="m60.68,118.56c-.23-.04-.48-.06-.71-.06.23-.04.47-.03.71.06Z"/><path class="cls-4" d="m63.25,65.12c-1.51,0-2.74-1.23-2.74-2.74s1.23-2.74,2.74-2.74,2.74,1.23,2.74,2.74-1.23,2.74-2.74,2.74Zm0-3c-.14,0-.26.11-.26.26,0,.28.51.28.51,0,0-.14-.11-.26-.26-.26Z"/><path class="cls-4" d="m81.79,55.43c-1.51,0-2.74-1.23-2.74-2.74s1.23-2.74,2.74-2.74,2.74,1.23,2.74,2.74-1.23,2.74-2.74,2.74Zm0-3c-.14,0-.26.11-.26.26,0,.28.51.28.51,0,0-.14-.11-.26-.26-.26Z"/><path class="cls-4" d="m38.14,40.48c-1.51,0-2.74-1.23-2.74-2.74s1.23-2.74,2.74-2.74,2.74,1.23,2.74,2.74-1.23,2.74-2.74,2.74Zm0-3c-.14,0-.26.11-.26.26,0,.28.51.28.51,0,0-.14-.11-.26-.26-.26Z"/><path class="cls-4" d="m2.93,81.38c-1.51,0-2.74-1.23-2.74-2.74s1.23-2.74,2.74-2.74,2.74,1.23,2.74,2.74-1.23,2.74-2.74,2.74Zm0-3c-.14,0-.26.11-.26.26,0,.28.51.28.51,0,0-.14-.11-.26-.26-.26Z"/><path class="cls-4" d="m24.24,108.19c0,1.51-1.23,2.74-2.74,2.74s-2.75-1.23-2.75-2.74,1.23-2.75,2.75-2.75,2.74,1.23,2.74,2.75Z"/><path class="cls-4" d="m45.81,130.19c-1.51,0-2.74-1.23-2.74-2.74s1.23-2.74,2.74-2.74,2.74,1.23,2.74,2.74-1.23,2.74-2.74,2.74Zm0-3c-.14,0-.26.11-.26.26,0,.28.51.28.51,0,0-.14-.11-.26-.26-.26Z"/><path class="cls-4" d="m86.31,109.69c-1.51,0-2.74-1.23-2.74-2.74s1.23-2.74,2.74-2.74,2.75,1.23,2.75,2.74-1.23,2.74-2.75,2.74Zm0-3c-.14,0-.25.11-.25.26,0,.28.51.28.51,0,0-.14-.11-.26-.26-.26Z"/><path class="cls-4" d="m6.44,69.23c-.27,0-.55-.07-.8-.23l-4.76-2.99c-.7-.44-.91-1.37-.47-2.07.44-.7,1.37-.91,2.07-.47l4.76,2.99c.7.44.91,1.37.47,2.07-.29.45-.77.7-1.27.7Z"/><path class="cls-4" d="m22.63,94.98c-.27,0-.55-.07-.8-.23l-4.76-2.99c-.7-.44-.91-1.37-.47-2.07.44-.7,1.37-.91,2.07-.47l4.76,2.99c.7.44.91,1.37.47,2.07-.29.45-.77.7-1.27.7Z"/><path class="cls-4" d="m75.78,134.03c-.49,0-.96-.24-1.25-.67l-3.09-4.69c-.46-.69-.27-1.62.43-2.08.69-.46,1.62-.27,2.08.43l3.09,4.69c.46.69.27,1.62-.43,2.08-.25.17-.54.25-.82.25Z"/><path class="cls-4" d="m84.89,96.63c-.49,0-.96-.24-1.25-.67l-3.09-4.69c-.46-.69-.27-1.62.43-2.08.69-.46,1.62-.27,2.08.43l3.09,4.69c.46.69.27,1.62-.43,2.08-.25.17-.54.25-.82.25Z"/><path class="cls-4" d="m24.29,123.82c-.49,0-.96-.24-1.25-.67l-3.09-4.69c-.46-.69-.27-1.62.43-2.08.69-.46,1.62-.27,2.08.43l3.09,4.69c.46.69.27,1.62-.43,2.08-.25.17-.54.25-.82.25Z"/><path class="cls-4" d="m58.52,53.34c-.49,0-.96-.24-1.25-.67l-3.09-4.69c-.46-.69-.27-1.62.43-2.08.69-.46,1.62-.27,2.08.43l3.09,4.69c.46.69.27,1.62-.43,2.08-.25.17-.54.25-.82.25Z"/><path class="cls-4" d="m11.47,47.01c-.27,0-.55-.07-.8-.23-.7-.44-.91-1.37-.47-2.07l2.99-4.76c.44-.7,1.37-.91,2.07-.47.7.44.91,1.37.47,2.07l-2.99,4.76c-.29.45-.77.7-1.27.7Z"/><path class="cls-4" d="m78.8,71.61c-.27,0-.55-.07-.8-.23-.7-.44-.91-1.37-.47-2.07l2.99-4.75c.44-.7,1.37-.91,2.07-.47.7.44.91,1.37.47,2.07l-2.99,4.75c-.29.45-.77.7-1.27.7Z"/><path class="cls-4" d="m6.97,107.2c-.27,0-.55-.07-.8-.23-.7-.44-.91-1.37-.47-2.07l2.99-4.76c.44-.7,1.37-.91,2.07-.47.7.44.91,1.37.47,2.07l-2.99,4.76c-.29.45-.77.7-1.27.7Z"/><path class="cls-4" d="m11.47,137.94c-.27,0-.55-.07-.8-.23-.7-.44-.91-1.37-.47-2.07l2.99-4.76c.44-.7,1.37-.91,2.07-.47.7.44.91,1.37.47,2.07l-2.99,4.76c-.29.45-.77.7-1.27.7Z"/><path class="cls-4" d="m42.16,65.08c-.81,0-1.48-.65-1.5-1.47-.03-1.28-.3-3.22-1.41-5.22-1.29-2.32-3.1-3.67-4.39-4.39-.72-.4-.98-1.32-.58-2.04.4-.72,1.31-.98,2.04-.58,1.63.91,3.93,2.62,5.56,5.56,1.11,2.01,1.73,4.29,1.78,6.6.02.83-.64,1.51-1.47,1.53-.01,0-.02,0-.03,0Z"/><path class="cls-4" d="m68.81,91.02c-.81,0-1.48-.65-1.5-1.47-.03-1.27-.3-3.22-1.41-5.22-1.29-2.32-3.1-3.67-4.39-4.39-.72-.4-.98-1.32-.58-2.04.4-.72,1.32-.98,2.04-.58,1.64.91,3.93,2.62,5.56,5.56,1.11,2.01,1.73,4.29,1.78,6.6.02.83-.64,1.51-1.47,1.53-.01,0-.02,0-.03,0Z"/></g></svg>