<?xml version="1.0" encoding="UTF-8"?><svg id="Ebene_2" xmlns="http://www.w3.org/2000/svg" viewBox="0 0 88.72 88.72"><defs><style>.cls-1{fill:#fff;}.cls-2{fill:#ffcf02;}.cls-3{fill:#1d1d1b;}</style></defs><g id="Ebene_1-2"><circle class="cls-2" cx="44.36" cy="44.36" r="44.36"/><path class="cls-3" d="m62.85,29.74c-3.32-6.74-9.71-11.03-17.12-11.48-.91-.05-1.84-.05-2.76,0-7.37.42-13.75,4.69-17.07,11.4-3.45,6.98-2.93,14.97,1.41,21.37l10.99,16.25c1.36,2.01,3.63,3.22,6.05,3.22h0c2.43,0,4.69-1.2,6.05-3.21l10.99-16.16c4.35-6.41,4.9-14.4,1.45-21.4Zm-3.71,19.86l-10.99,16.16c-.86,1.27-2.25,2.01-3.8,2.01s-2.93-.74-3.8-2.02l-10.99-16.25c-3.78-5.58-4.23-12.55-1.23-18.64,2.88-5.82,8.41-9.52,14.78-9.9.4-.02.8-.04,1.21-.04s.84.02,1.24.04c6.41.38,11.95,4.11,14.83,9.96,3,6.11,2.53,13.08-1.26,18.66Z"/><path class="cls-1" d="m60.4,30.94c-2.88-5.85-8.42-9.58-14.83-9.96-.41-.02-.83-.04-1.24-.04s-.81.02-1.21.04c-6.37.37-11.9,4.07-14.78,9.9-3.01,6.09-2.55,13.06,1.23,18.64l10.99,16.25c.86,1.28,2.25,2.02,3.8,2.02s2.93-.74,3.8-2.01l10.99-16.16c3.79-5.58,4.26-12.56,1.26-18.66Zm-16.15,17.56c-5.29,0-9.58-4.3-9.58-9.58s4.29-9.58,9.58-9.58,9.58,4.3,9.58,9.58-4.3,9.58-9.58,9.58Z"/><path class="cls-3" d="m44.26,29.34c-5.29,0-9.58,4.3-9.58,9.58s4.29,9.58,9.58,9.58,9.58-4.3,9.58-9.58-4.3-9.58-9.58-9.58Zm0,16.43c-3.78,0-6.85-3.07-6.85-6.85s3.07-6.85,6.85-6.85,6.85,3.07,6.85,6.85-3.08,6.85-6.85,6.85Z"/></g></svg>