<?xml version="1.0" encoding="UTF-8"?><svg id="Ebene_2" xmlns="http://www.w3.org/2000/svg" viewBox="0 0 88.72 88.72"><defs><style>.cls-1{fill:#fff;}.cls-2{fill:#ffcf02;}.cls-3{fill:#1d1d1b;}</style></defs><g id="Ebene_1-2"><circle class="cls-2" cx="44.36" cy="44.36" r="44.36"/><path class="cls-3" d="m66.63,51.6c-1.31-1.46-3.02-2.63-4.96-3.4l-.19-.08c-1.46-.57-3.47-1.36-5.36-.6-1.25.5-2.01,1.74-2.74,2.93-1.21,1.98-1.4,1.87-1.69,1.71-6.13-3.26-12.28-9.78-14.63-15.49-.15-.38-.15-.6,1.82-1.66,1.22-.65,2.49-1.33,3.06-2.56.88-1.86.19-3.92-.3-5.43l-.05-.15c-.64-1.97-1.7-3.76-3.1-5.16-3.25-3.27-7.6-4.36-11.34-2.84-2.02.81-3.86,2.33-5.34,4.38-.99,1.36-2.64,4.05-2.78,6.86-.17,4.43,2.61,9.09,5.22,13.1.15.24,2.07,3.24,4.89,6.89,2.82,3.66,6.55,7.97,10.33,10.84.13.1,12.57,9.47,17.63,9.58h.15c2.6,0,5.15-1.28,6.86-2.35,2.12-1.35,3.75-3.1,4.69-5.06,1.74-3.65.92-8.06-2.17-11.5Zm-.46,10.25c-.71,1.48-1.96,2.82-3.62,3.86-1.12.72-3.29,1.91-5.3,1.91h-.1c-3.13-.07-12.26-6.2-15.94-8.99-7.15-5.41-14.45-16.86-14.53-16.98-1.71-2.64-4.92-7.54-4.76-11.41.1-2.05,1.43-4.18,2.23-5.28,1.15-1.61,2.57-2.78,4.08-3.39,3.15-1.28,6.29.29,8.18,2.19,1.07,1.08,1.9,2.47,2.39,4.02l.06.16c.37,1.1.81,2.48.44,3.29-.16.35-1.15.87-1.8,1.22-1.53.82-4.38,2.34-3.15,5.33,2.62,6.38,9.19,13.35,15.96,16.96,2.9,1.54,4.61-1.26,5.54-2.76.39-.64.98-1.61,1.34-1.75.83-.33,2.16.18,3.23.6l.19.08c1.51.6,2.85,1.51,3.85,2.63,1.79,2,3.18,5.24,1.7,8.31Z"/><path class="cls-1" d="m66.18,61.84c-.71,1.48-1.96,2.82-3.62,3.86-1.12.72-3.29,1.91-5.3,1.91h-.1c-3.13-.07-12.26-6.2-15.94-8.99-7.15-5.41-14.45-16.86-14.53-16.98-1.71-2.64-4.92-7.54-4.76-11.41.1-2.05,1.43-4.18,2.23-5.28,1.15-1.61,2.57-2.78,4.08-3.39,3.15-1.28,6.29.29,8.18,2.19,1.07,1.08,1.9,2.47,2.39,4.02l.06.16c.37,1.1.81,2.48.44,3.29-.16.35-1.15.87-1.8,1.22-1.53.82-4.38,2.34-3.15,5.33,2.62,6.38,9.19,13.35,15.96,16.96,2.9,1.54,4.61-1.26,5.54-2.76.39-.64.98-1.61,1.34-1.75.83-.33,2.16.18,3.23.6l.19.08c1.51.6,2.85,1.51,3.85,2.63,1.79,2,3.18,5.24,1.7,8.31Z"/></g></svg>