<?xml version="1.0" encoding="UTF-8"?><svg id="Ebene_2" xmlns="http://www.w3.org/2000/svg" viewBox="0 0 100.86 149.79"><defs><style>.cls-1{fill:none;}.cls-2{fill:#fff;}.cls-3{fill:#ffcf02;}.cls-4{fill:#1d1d1b;}</style></defs><g id="Ebene_1-2"><circle class="cls-3" cx="44.39" cy="89.77" r="44.36"/><path class="cls-4" d="m52.22,98.69c-.55-4.11-2.87-6.44-5.06-7.75t.02-.02c2.22,1.31,4.54,3.65,5.04,7.77Z"/><path class="cls-4" d="m47.72,87.8l-.79-.39-.05.03c.27.11.55.24.85.39,2.74,1.39,7.3,4.75,7.59,12.01-.23-7.29-4.83-10.67-7.6-12.04Z"/><path class="cls-4" d="m40.7,115.32h-.02.02Z"/><path class="cls-4" d="m40.57,112.32h-.02.02Z"/><path class="cls-4" d="m52.22,98.69c-.55-4.11-2.87-6.44-5.06-7.75t.02-.02c2.22,1.31,4.54,3.65,5.04,7.77Z"/><path class="cls-4" d="m22.61,65.84c.93-1.84,2.31-3.36,4.15-4.54.37-.24.75-.46,1.13-.66-2.01,1.01-4.01,2.62-5.28,5.2Zm17.94,46.48s0,0,.02.01h0s-.01-.01-.02-.01Zm.13,3s.01,0,.02.01h0s-.01-.01-.02-.01Zm1.04,10.85h-.12.01c.64.02,1.23.44,1.42,1.09.23.79-.22,1.62-1.02,1.85-.01,0-.08.02-.18.05.78-.04,1.4-.7,1.4-1.5-.01-.82-.68-1.49-1.51-1.49Z"/><path class="cls-4" d="m32.61,59.09c.33-.06.64-.1.92-.13-.27.03-.58.08-.92.13Zm8.07,56.23s.01,0,.02.01h0s-.01-.01-.02-.01Zm0,0s.01,0,.02.01h0s-.01-.01-.02-.01Zm6.12-27.91l.07.04h.01s-.06-.04-.08-.04Zm.38,3.51s0,.01-.02.02c2.19,1.31,4.51,3.64,5.06,7.75-.5-4.12-2.82-6.46-5.04-7.77Zm-6.5,24.4s.01,0,.02.01h0s-.01-.01-.02-.01Zm0,0s.01,0,.02.01h0s-.01-.01-.02-.01Z"/><path class="cls-4" d="m71.49,25.96c-6.18,0-11.21,5.03-11.21,11.22s5.03,11.21,11.21,11.21,11.21-5.03,11.21-11.21-5.03-11.22-11.21-11.22Zm0,19.43c-4.53,0-8.21-3.68-8.21-8.21s3.68-8.22,8.21-8.22,8.21,3.69,8.21,8.22-3.68,8.21-8.21,8.21Z"/><line class="cls-1" x1="25.63" y1="105.51" x2="24.96" y2="104.94"/><line class="cls-1" x1="24.86" y1="104.86" x2="18.4" y2="99.4"/><line class="cls-1" x1="22.85" y1="108.34" x2="15.08" y2="104.92"/><line class="cls-1" x1="23.74" y1="108.73" x2="22.96" y2="108.39"/><path class="cls-4" d="m47.18,90.92s0,.01-.02.02c2.19,1.31,4.51,3.64,5.06,7.75-.5-4.12-2.82-6.46-5.04-7.77Z"/><path class="cls-1" d="m47.18,90.92s0,.01-.02.02c2.19,1.31,4.51,3.64,5.06,7.75-.5-4.12-2.82-6.46-5.04-7.77Zm-5.46,35.25h-.12.01c.64.02,1.23.44,1.42,1.09.23.79-.22,1.62-1.02,1.85-.01,0-.08.02-.18.05.78-.04,1.4-.7,1.4-1.5-.01-.82-.68-1.49-1.51-1.49Zm-1.04-10.85s.01,0,.02.01h0s-.01-.01-.02-.01Zm-.13-3s0,0,.02.01h0s-.01-.01-.02-.01Zm6.63-21.4s0,.01-.02.02c2.19,1.31,4.51,3.64,5.06,7.75-.5-4.12-2.82-6.46-5.04-7.77Zm0,0s0,.01-.02.02c2.19,1.31,4.51,3.64,5.06,7.75-.5-4.12-2.82-6.46-5.04-7.77Zm-5.46,35.25h-.12.01c.64.02,1.23.44,1.42,1.09.23.79-.22,1.62-1.02,1.85-.01,0-.08.02-.18.05.78-.04,1.4-.7,1.4-1.5-.01-.82-.68-1.49-1.51-1.49Zm-1.04-10.85s.01,0,.02.01h0s-.01-.01-.02-.01Zm-.13-3s0,0,.02.01h0s-.01-.01-.02-.01Zm-17.94-46.48c.93-1.84,2.31-3.36,4.15-4.54.37-.24.75-.46,1.13-.66-2.01,1.01-4.01,2.62-5.28,5.2Zm19.11,60.33h-.12.01c.64.02,1.23.44,1.42,1.09.23.79-.22,1.62-1.02,1.85-.01,0-.08.02-.18.05.78-.04,1.4-.7,1.4-1.5-.01-.82-.68-1.49-1.51-1.49Zm-1.04-10.85s.01,0,.02.01h0s-.01-.01-.02-.01Zm-.13-3s0,0,.02.01h0s-.01-.01-.02-.01Zm-17.94-46.48c.93-1.84,2.31-3.36,4.15-4.54.37-.24.75-.46,1.13-.66-2.01,1.01-4.01,2.62-5.28,5.2Zm24.57,25.08s0,.01-.02.02c2.19,1.31,4.51,3.64,5.06,7.75-.5-4.12-2.82-6.46-5.04-7.77Zm0,0s0,.01-.02.02c2.19,1.31,4.51,3.64,5.06,7.75-.5-4.12-2.82-6.46-5.04-7.77Zm-5.46,35.25h-.12.01c.64.02,1.23.44,1.42,1.09.23.79-.22,1.62-1.02,1.85-.01,0-.08.02-.18.05.78-.04,1.4-.7,1.4-1.5-.01-.82-.68-1.49-1.51-1.49Zm-1.04-10.85s.01,0,.02.01h0s-.01-.01-.02-.01Zm-.13-3s0,0,.02.01h0s-.01-.01-.02-.01Zm-17.94-46.48c.93-1.84,2.31-3.36,4.15-4.54.37-.24.75-.46,1.13-.66-2.01,1.01-4.01,2.62-5.28,5.2Zm19.11,60.33h-.12.01c.64.02,1.23.44,1.42,1.09.23.79-.22,1.62-1.02,1.85-.01,0-.08.02-.18.05.78-.04,1.4-.7,1.4-1.5-.01-.82-.68-1.49-1.51-1.49Zm-1.04-10.85s.01,0,.02.01h0s-.01-.01-.02-.01Zm-.13-3s0,0,.02.01h0s-.01-.01-.02-.01Zm-17.94-46.48c.93-1.84,2.31-3.36,4.15-4.54.37-.24.75-.46,1.13-.66-2.01,1.01-4.01,2.62-5.28,5.2Zm24.57,25.08s0,.01-.02.02c2.19,1.31,4.51,3.64,5.06,7.75-.5-4.12-2.82-6.46-5.04-7.77Zm0,0s0,.01-.02.02c2.19,1.31,4.51,3.64,5.06,7.75-.5-4.12-2.82-6.46-5.04-7.77Zm-5.46,35.25h-.12.01c.64.02,1.23.44,1.42,1.09.23.79-.22,1.62-1.02,1.85-.01,0-.08.02-.18.05.78-.04,1.4-.7,1.4-1.5-.01-.82-.68-1.49-1.51-1.49Zm-1.04-10.85s.01,0,.02.01h0s-.01-.01-.02-.01Zm-.13-3s0,0,.02.01h0s-.01-.01-.02-.01Zm-17.94-46.48c.93-1.84,2.31-3.36,4.15-4.54.37-.24.75-.46,1.13-.66-2.01,1.01-4.01,2.62-5.28,5.2Zm19.11,60.33h-.12.01c.64.02,1.23.44,1.42,1.09.23.79-.22,1.62-1.02,1.85-.01,0-.08.02-.18.05.78-.04,1.4-.7,1.4-1.5-.01-.82-.68-1.49-1.51-1.49Zm-1.04-10.85s.01,0,.02.01h0s-.01-.01-.02-.01Zm-.13-3s0,0,.02.01h0s-.01-.01-.02-.01Zm-17.94-46.48c.93-1.84,2.31-3.36,4.15-4.54.37-.24.75-.46,1.13-.66-2.01,1.01-4.01,2.62-5.28,5.2Zm24.57,25.08s0,.01-.02.02c2.19,1.31,4.51,3.64,5.06,7.75-.5-4.12-2.82-6.46-5.04-7.77Zm0,0s0,.01-.02.02c2.19,1.31,4.51,3.64,5.06,7.75-.5-4.12-2.82-6.46-5.04-7.77Zm-5.46,35.25h-.12.01c.64.02,1.23.44,1.42,1.09.23.79-.22,1.62-1.02,1.85-.01,0-.08.02-.18.05.78-.04,1.4-.7,1.4-1.5-.01-.82-.68-1.49-1.51-1.49Zm-1.04-10.85s.01,0,.02.01h0s-.01-.01-.02-.01Zm-.13-3s0,0,.02.01h0s-.01-.01-.02-.01Zm-17.94-46.48c.93-1.84,2.31-3.36,4.15-4.54.37-.24.75-.46,1.13-.66-2.01,1.01-4.01,2.62-5.28,5.2Zm19.11,60.33h-.12.01c.64.02,1.23.44,1.42,1.09.23.79-.22,1.62-1.02,1.85-.01,0-.08.02-.18.05.78-.04,1.4-.7,1.4-1.5-.01-.82-.68-1.49-1.51-1.49Zm-1.04-10.85s.01,0,.02.01h0s-.01-.01-.02-.01Zm-.13-3s0,0,.02.01h0s-.01-.01-.02-.01Zm-17.94-46.48c.93-1.84,2.31-3.36,4.15-4.54.37-.24.75-.46,1.13-.66-2.01,1.01-4.01,2.62-5.28,5.2Zm24.57,25.08s0,.01-.02.02c2.19,1.31,4.51,3.64,5.06,7.75-.5-4.12-2.82-6.46-5.04-7.77Zm0,0s0,.01-.02.02c2.19,1.31,4.51,3.64,5.06,7.75-.5-4.12-2.82-6.46-5.04-7.77Zm-5.46,35.25h-.12.01c.64.02,1.23.44,1.42,1.09.23.79-.22,1.62-1.02,1.85-.01,0-.08.02-.18.05.78-.04,1.4-.7,1.4-1.5-.01-.82-.68-1.49-1.51-1.49Zm-1.04-10.85s.01,0,.02.01h0s-.01-.01-.02-.01Zm-.13-3s0,0,.02.01h0s-.01-.01-.02-.01Zm-17.94-46.48c.93-1.84,2.31-3.36,4.15-4.54.37-.24.75-.46,1.13-.66-2.01,1.01-4.01,2.62-5.28,5.2Zm19.11,60.33h-.12.01c.64.02,1.23.44,1.42,1.09.23.79-.22,1.62-1.02,1.85-.01,0-.08.02-.18.05.78-.04,1.4-.7,1.4-1.5-.01-.82-.68-1.49-1.51-1.49Zm-1.04-10.85s.01,0,.02.01h0s-.01-.01-.02-.01Zm-.13-3s0,0,.02.01h0s-.01-.01-.02-.01Zm-17.94-46.48c.93-1.84,2.31-3.36,4.15-4.54.37-.24.75-.46,1.13-.66-2.01,1.01-4.01,2.62-5.28,5.2Zm24.57,25.08s0,.01-.02.02c2.19,1.31,4.51,3.64,5.06,7.75-.5-4.12-2.82-6.46-5.04-7.77Zm0,0s0,.01-.02.02c2.19,1.31,4.51,3.64,5.06,7.75-.5-4.12-2.82-6.46-5.04-7.77Zm-5.46,35.25h-.12.01c.64.02,1.23.44,1.42,1.09.23.79-.22,1.62-1.02,1.85-.01,0-.08.02-.18.05.78-.04,1.4-.7,1.4-1.5-.01-.82-.68-1.49-1.51-1.49Zm-1.04-10.85s.01,0,.02.01h0s-.01-.01-.02-.01Zm-.13-3s0,0,.02.01h0s-.01-.01-.02-.01Zm-17.94-46.48c.93-1.84,2.31-3.36,4.15-4.54.37-.24.75-.46,1.13-.66-2.01,1.01-4.01,2.62-5.28,5.2ZM60.68,13.84c-1.56,0-2.82,1.26-2.82,2.81s1.26,2.83,2.82,2.83,2.82-1.27,2.82-2.83-1.27-2.81-2.82-2.81Zm-13.5,77.08s0,.01-.02.02c2.19,1.31,4.51,3.64,5.06,7.75-.5-4.12-2.82-6.46-5.04-7.77Zm-5.46,35.25h-.12.01c.64.02,1.23.44,1.42,1.09.23.79-.22,1.62-1.02,1.85-.01,0-.08.02-.18.05.78-.04,1.4-.7,1.4-1.5-.01-.82-.68-1.49-1.51-1.49Zm-1.04-10.85s.01,0,.02.01h0s-.01-.01-.02-.01Zm-.13-3s0,0,.02.01h0s-.01-.01-.02-.01Zm-17.94-46.48c.93-1.84,2.31-3.36,4.15-4.54.37-.24.75-.46,1.13-.66-2.01,1.01-4.01,2.62-5.28,5.2ZM60.68,13.84c-1.56,0-2.82,1.26-2.82,2.81s1.26,2.83,2.82,2.83,2.82-1.27,2.82-2.83-1.27-2.81-2.82-2.81Zm-38.07,52c.93-1.84,2.31-3.36,4.15-4.54.37-.24.75-.46,1.13-.66-2.01,1.01-4.01,2.62-5.28,5.2Zm17.94,46.48s0,0,.02.01h0s-.01-.01-.02-.01Zm.13,3s.01,0,.02.01h0s-.01-.01-.02-.01Zm1.04,10.85h-.12.01c.64.02,1.23.44,1.42,1.09.23.79-.22,1.62-1.02,1.85-.01,0-.08.02-.18.05.78-.04,1.4-.7,1.4-1.5-.01-.82-.68-1.49-1.51-1.49Zm5.46-35.25s0,.01-.02.02c2.19,1.31,4.51,3.64,5.06,7.75-.5-4.12-2.82-6.46-5.04-7.77ZM60.68,13.84c-1.56,0-2.82,1.26-2.82,2.81s1.26,2.83,2.82,2.83,2.82-1.27,2.82-2.83-1.27-2.81-2.82-2.81Zm-13.5,77.08s0,.01-.02.02c2.19,1.31,4.51,3.64,5.06,7.75-.5-4.12-2.82-6.46-5.04-7.77Zm-5.46,35.25h-.12.01c.64.02,1.23.44,1.42,1.09.23.79-.22,1.62-1.02,1.85-.01,0-.08.02-.18.05.78-.04,1.4-.7,1.4-1.5-.01-.82-.68-1.49-1.51-1.49Zm-1.04-10.85s.01,0,.02.01h0s-.01-.01-.02-.01Zm-.13-3s0,0,.02.01h0s-.01-.01-.02-.01Zm-17.94-46.48c.93-1.84,2.31-3.36,4.15-4.54.37-.24.75-.46,1.13-.66-2.01,1.01-4.01,2.62-5.28,5.2ZM60.68,13.84c-1.56,0-2.82,1.26-2.82,2.81s1.26,2.83,2.82,2.83,2.82-1.27,2.82-2.83-1.27-2.81-2.82-2.81Zm-38.07,52c.93-1.84,2.31-3.36,4.15-4.54.37-.24.75-.46,1.13-.66-2.01,1.01-4.01,2.62-5.28,5.2Zm17.94,46.48s0,0,.02.01h0s-.01-.01-.02-.01Zm.13,3s.01,0,.02.01h0s-.01-.01-.02-.01Zm1.04,10.85h-.12.01c.64.02,1.23.44,1.42,1.09.23.79-.22,1.62-1.02,1.85-.01,0-.08.02-.18.05.78-.04,1.4-.7,1.4-1.5-.01-.82-.68-1.49-1.51-1.49Zm5.46-35.25s0,.01-.02.02c2.19,1.31,4.51,3.64,5.06,7.75-.5-4.12-2.82-6.46-5.04-7.77ZM60.68,13.84c-1.56,0-2.82,1.26-2.82,2.81s1.26,2.83,2.82,2.83,2.82-1.27,2.82-2.83-1.27-2.81-2.82-2.81Zm-13.5,77.08s0,.01-.02.02c2.19,1.31,4.51,3.64,5.06,7.75-.5-4.12-2.82-6.46-5.04-7.77Zm-5.46,35.25h-.12.01c.64.02,1.23.44,1.42,1.09.23.79-.22,1.62-1.02,1.85-.01,0-.08.02-.18.05.78-.04,1.4-.7,1.4-1.5-.01-.82-.68-1.49-1.51-1.49Zm-1.04-10.85s.01,0,.02.01h0s-.01-.01-.02-.01Zm-.13-3s0,0,.02.01h0s-.01-.01-.02-.01Zm-17.94-46.48c.93-1.84,2.31-3.36,4.15-4.54.37-.24.75-.46,1.13-.66-2.01,1.01-4.01,2.62-5.28,5.2ZM60.68,13.84c-1.56,0-2.82,1.26-2.82,2.81s1.26,2.83,2.82,2.83,2.82-1.27,2.82-2.83-1.27-2.81-2.82-2.81Zm-38.07,52c.93-1.84,2.31-3.36,4.15-4.54.37-.24.75-.46,1.13-.66-2.01,1.01-4.01,2.62-5.28,5.2Zm17.94,46.48s0,0,.02.01h0s-.01-.01-.02-.01Zm.13,3s.01,0,.02.01h0s-.01-.01-.02-.01Zm1.04,10.85h-.12.01c.64.02,1.23.44,1.42,1.09.23.79-.22,1.62-1.02,1.85-.01,0-.08.02-.18.05.78-.04,1.4-.7,1.4-1.5-.01-.82-.68-1.49-1.51-1.49Zm5.46-35.25s0,.01-.02.02c2.19,1.31,4.51,3.64,5.06,7.75-.5-4.12-2.82-6.46-5.04-7.77ZM60.68,13.84c-1.56,0-2.82,1.26-2.82,2.81s1.26,2.83,2.82,2.83,2.82-1.27,2.82-2.83-1.27-2.81-2.82-2.81Zm-13.5,77.08s0,.01-.02.02c2.19,1.31,4.51,3.64,5.06,7.75-.5-4.12-2.82-6.46-5.04-7.77Zm-5.46,35.25h-.12.01c.64.02,1.23.44,1.42,1.09.23.79-.22,1.62-1.02,1.85-.01,0-.08.02-.18.05.78-.04,1.4-.7,1.4-1.5-.01-.82-.68-1.49-1.51-1.49Zm-1.04-10.85s.01,0,.02.01h0s-.01-.01-.02-.01Zm-.13-3s0,0,.02.01h0s-.01-.01-.02-.01Zm-17.94-46.48c.93-1.84,2.31-3.36,4.15-4.54.37-.24.75-.46,1.13-.66-2.01,1.01-4.01,2.62-5.28,5.2ZM60.68,13.84c-1.56,0-2.82,1.26-2.82,2.81s1.26,2.83,2.82,2.83,2.82-1.27,2.82-2.83-1.27-2.81-2.82-2.81Zm-38.07,52c.93-1.84,2.31-3.36,4.15-4.54.37-.24.75-.46,1.13-.66-2.01,1.01-4.01,2.62-5.28,5.2Zm17.94,46.48s0,0,.02.01h0s-.01-.01-.02-.01Zm.13,3s.01,0,.02.01h0s-.01-.01-.02-.01Zm1.04,10.85h-.12.01c.64.02,1.23.44,1.42,1.09.23.79-.22,1.62-1.02,1.85-.01,0-.08.02-.18.05.78-.04,1.4-.7,1.4-1.5-.01-.82-.68-1.49-1.51-1.49Zm5.46-35.25s0,.01-.02.02c2.19,1.31,4.51,3.64,5.06,7.75-.5-4.12-2.82-6.46-5.04-7.77ZM60.68,13.84c-1.56,0-2.82,1.26-2.82,2.81s1.26,2.83,2.82,2.83,2.82-1.27,2.82-2.83-1.27-2.81-2.82-2.81Zm-13.5,77.08s0,.01-.02.02c2.19,1.31,4.51,3.64,5.06,7.75-.5-4.12-2.82-6.46-5.04-7.77Zm-5.46,35.25h-.12.01c.64.02,1.23.44,1.42,1.09.23.79-.22,1.62-1.02,1.85-.01,0-.08.02-.18.05.78-.04,1.4-.7,1.4-1.5-.01-.82-.68-1.49-1.51-1.49Zm-1.04-10.85s.01,0,.02.01h0s-.01-.01-.02-.01Zm-.13-3s0,0,.02.01h0s-.01-.01-.02-.01Zm-17.94-46.48c.93-1.84,2.31-3.36,4.15-4.54.37-.24.75-.46,1.13-.66-2.01,1.01-4.01,2.62-5.28,5.2ZM60.68,13.84c-1.56,0-2.82,1.26-2.82,2.81s1.26,2.83,2.82,2.83,2.82-1.27,2.82-2.83-1.27-2.81-2.82-2.81Zm-38.07,52c.93-1.84,2.31-3.36,4.15-4.54.37-.24.75-.46,1.13-.66-2.01,1.01-4.01,2.62-5.28,5.2Zm17.94,46.48s0,0,.02.01h0s-.01-.01-.02-.01Zm.13,3s.01,0,.02.01h0s-.01-.01-.02-.01Zm1.04,10.85h-.12.01c.64.02,1.23.44,1.42,1.09.23.79-.22,1.62-1.02,1.85-.01,0-.08.02-.18.05.78-.04,1.4-.7,1.4-1.5-.01-.82-.68-1.49-1.51-1.49Zm5.46-35.25s0,.01-.02.02c2.19,1.31,4.51,3.64,5.06,7.75-.5-4.12-2.82-6.46-5.04-7.77ZM60.68,13.84c-1.56,0-2.82,1.26-2.82,2.81s1.26,2.83,2.82,2.83,2.82-1.27,2.82-2.83-1.27-2.81-2.82-2.81Zm-13.5,77.08s0,.01-.02.02c2.19,1.31,4.51,3.64,5.06,7.75-.5-4.12-2.82-6.46-5.04-7.77Zm-5.46,35.25h-.12.01c.64.02,1.23.44,1.42,1.09.23.79-.22,1.62-1.02,1.85-.01,0-.08.02-.18.05.78-.04,1.4-.7,1.4-1.5-.01-.82-.68-1.49-1.51-1.49Zm-1.04-10.85s.01,0,.02.01h0s-.01-.01-.02-.01Zm-.13-3s0,0,.02.01h0s-.01-.01-.02-.01Zm-17.94-46.48c.93-1.84,2.31-3.36,4.15-4.54.37-.24.75-.46,1.13-.66-2.01,1.01-4.01,2.62-5.28,5.2ZM60.68,13.84c-1.56,0-2.82,1.26-2.82,2.81s1.26,2.83,2.82,2.83,2.82-1.27,2.82-2.83-1.27-2.81-2.82-2.81Zm-38.07,52c.93-1.84,2.31-3.36,4.15-4.54.37-.24.75-.46,1.13-.66-2.01,1.01-4.01,2.62-5.28,5.2Zm17.94,46.48s0,0,.02.01h0s-.01-.01-.02-.01Zm.13,3s.01,0,.02.01h0s-.01-.01-.02-.01Zm1.04,10.85h-.12.01c.64.02,1.23.44,1.42,1.09.23.79-.22,1.62-1.02,1.85-.01,0-.08.02-.18.05.78-.04,1.4-.7,1.4-1.5-.01-.82-.68-1.49-1.51-1.49Zm5.46-35.25s0,.01-.02.02c2.19,1.31,4.51,3.64,5.06,7.75-.5-4.12-2.82-6.46-5.04-7.77ZM60.68,13.84c-1.56,0-2.82,1.26-2.82,2.81s1.26,2.83,2.82,2.83,2.82-1.27,2.82-2.83-1.27-2.81-2.82-2.81Zm-13.5,77.08s0,.01-.02.02c2.19,1.31,4.51,3.64,5.06,7.75-.5-4.12-2.82-6.46-5.04-7.77Zm-5.46,35.25h-.12.01c.64.02,1.23.44,1.42,1.09.23.79-.22,1.62-1.02,1.85-.01,0-.08.02-.18.05.78-.04,1.4-.7,1.4-1.5-.01-.82-.68-1.49-1.51-1.49Zm-1.04-10.85s.01,0,.02.01h0s-.01-.01-.02-.01Zm-.13-3s0,0,.02.01h0s-.01-.01-.02-.01Zm-17.94-46.48c.93-1.84,2.31-3.36,4.15-4.54.37-.24.75-.46,1.13-.66-2.01,1.01-4.01,2.62-5.28,5.2ZM60.68,13.84c-1.56,0-2.82,1.26-2.82,2.81s1.26,2.83,2.82,2.83,2.82-1.27,2.82-2.83-1.27-2.81-2.82-2.81Zm-38.07,52c.93-1.84,2.31-3.36,4.15-4.54.37-.24.75-.46,1.13-.66-2.01,1.01-4.01,2.62-5.28,5.2Zm17.94,46.48s0,0,.02.01h0s-.01-.01-.02-.01Zm.13,3s.01,0,.02.01h0s-.01-.01-.02-.01Zm1.04,10.85h-.12.01c.64.02,1.23.44,1.42,1.09.23.79-.22,1.62-1.02,1.85-.01,0-.08.02-.18.05.78-.04,1.4-.7,1.4-1.5-.01-.82-.68-1.49-1.51-1.49Zm5.46-35.25s0,.01-.02.02c2.19,1.31,4.51,3.64,5.06,7.75-.5-4.12-2.82-6.46-5.04-7.77ZM60.68,13.84c-1.56,0-2.82,1.26-2.82,2.81s1.26,2.83,2.82,2.83,2.82-1.27,2.82-2.83-1.27-2.81-2.82-2.81Zm-13.5,77.08s0,.01-.02.02c2.19,1.31,4.51,3.64,5.06,7.75-.5-4.12-2.82-6.46-5.04-7.77Zm-5.46,35.25h-.12.01c.64.02,1.23.44,1.42,1.09.23.79-.22,1.62-1.02,1.85-.01,0-.08.02-.18.05.78-.04,1.4-.7,1.4-1.5-.01-.82-.68-1.49-1.51-1.49Zm-1.04-10.85s.01,0,.02.01h0s-.01-.01-.02-.01Zm-.13-3s0,0,.02.01h0s-.01-.01-.02-.01Zm-17.94-46.48c.93-1.84,2.31-3.36,4.15-4.54.37-.24.75-.46,1.13-.66-2.01,1.01-4.01,2.62-5.28,5.2ZM60.68,13.84c-1.56,0-2.82,1.26-2.82,2.81s1.26,2.83,2.82,2.83,2.82-1.27,2.82-2.83-1.27-2.81-2.82-2.81Zm-38.07,52c.93-1.84,2.31-3.36,4.15-4.54.37-.24.75-.46,1.13-.66-2.01,1.01-4.01,2.62-5.28,5.2Zm17.94,46.48s0,0,.02.01h0s-.01-.01-.02-.01Zm.13,3s.01,0,.02.01h0s-.01-.01-.02-.01Zm1.04,10.85h-.12.01c.64.02,1.23.44,1.42,1.09.23.79-.22,1.62-1.02,1.85-.01,0-.08.02-.18.05.78-.04,1.4-.7,1.4-1.5-.01-.82-.68-1.49-1.51-1.49Zm5.46-35.25s0,.01-.02.02c2.19,1.31,4.51,3.64,5.06,7.75-.5-4.12-2.82-6.46-5.04-7.77ZM60.68,13.84c-1.56,0-2.82,1.26-2.82,2.81s1.26,2.83,2.82,2.83,2.82-1.27,2.82-2.83-1.27-2.81-2.82-2.81Zm-13.5,77.08s0,.01-.02.02c2.19,1.31,4.51,3.64,5.06,7.75-.5-4.12-2.82-6.46-5.04-7.77Zm-5.46,35.25h-.12.01c.64.02,1.23.44,1.42,1.09.23.79-.22,1.62-1.02,1.85-.01,0-.08.02-.18.05.78-.04,1.4-.7,1.4-1.5-.01-.82-.68-1.49-1.51-1.49Zm-1.04-10.85s.01,0,.02.01h0s-.01-.01-.02-.01Zm-.13-3s0,0,.02.01h0s-.01-.01-.02-.01Zm-17.94-46.48c.93-1.84,2.31-3.36,4.15-4.54.37-.24.75-.46,1.13-.66-2.01,1.01-4.01,2.62-5.28,5.2ZM60.68,13.84c-1.56,0-2.82,1.26-2.82,2.81s1.26,2.83,2.82,2.83,2.82-1.27,2.82-2.83-1.27-2.81-2.82-2.81Zm-38.07,52c.93-1.84,2.31-3.36,4.15-4.54.37-.24.75-.46,1.13-.66-2.01,1.01-4.01,2.62-5.28,5.2Zm17.94,46.48s0,0,.02.01h0s-.01-.01-.02-.01Zm.13,3s.01,0,.02.01h0s-.01-.01-.02-.01Zm1.04,10.85h-.12.01c.64.02,1.23.44,1.42,1.09.23.79-.22,1.62-1.02,1.85-.01,0-.08.02-.18.05.78-.04,1.4-.7,1.4-1.5-.01-.82-.68-1.49-1.51-1.49Zm5.46-35.25s0,.01-.02.02c2.19,1.31,4.51,3.64,5.06,7.75-.5-4.12-2.82-6.46-5.04-7.77ZM60.68,13.84c-1.56,0-2.82,1.26-2.82,2.81s1.26,2.83,2.82,2.83,2.82-1.27,2.82-2.83-1.27-2.81-2.82-2.81Zm-13.5,77.08s0,.01-.02.02c2.19,1.31,4.51,3.64,5.06,7.75-.5-4.12-2.82-6.46-5.04-7.77Zm-5.46,35.25h-.12.01c.64.02,1.23.44,1.42,1.09.23.79-.22,1.62-1.02,1.85-.01,0-.08.02-.18.05.78-.04,1.4-.7,1.4-1.5-.01-.82-.68-1.49-1.51-1.49Zm-1.02-10.84h0s-.01-.01-.02-.01t.02.01Zm-.13-3h0s-.01-.01-.02-.01t.02.01Zm-17.96-46.49c.93-1.84,2.31-3.36,4.15-4.54.37-.24.75-.46,1.13-.66-2.01,1.01-4.01,2.62-5.28,5.2ZM60.68,13.84c-1.56,0-2.82,1.26-2.82,2.81s1.26,2.83,2.82,2.83,2.82-1.27,2.82-2.83-1.27-2.81-2.82-2.81ZM0,0v149.79h100.86V0H0Zm60.68,10.84c3.21,0,5.82,2.61,5.82,5.81s-2.61,5.83-5.82,5.83-5.82-2.62-5.82-5.83,2.61-5.81,5.82-5.81Zm-1.24,64.24l-1.2,7.57c-.2,1.23-.92,2.3-1.98,2.93-1.07.64-2.37.78-3.56.37-.79-.27-2.95-.54-3.92-.54-4.17,0-4.7.53-4.7.99.05.07.37.24.62.3,0,0,.34.07.88.25.34.1.75.25,1.22.46l.07.04h.01c.27.1.55.23.85.38,2.74,1.39,7.3,4.75,7.59,12.01.01.23.01.47.01.71,0,.27-.01.54-.03.81-.23,4.8-2.56,9.09-6.34,11.56-.51.34-1.04.65-1.6.92,4.2,1.78,8.81,5.66,8.81,14.08,0,10.42-6.33,16.4-17.36,16.4-3.52,0-21.07-1.05-21.07-21.86,0-3.16,1.2-6.34,2.38-8.83l-8.92-1.38c-1.73-.27-3.2-1.31-4.03-2.85-.83-1.54-.88-3.34-.15-4.94l5.29-11.46c.76-1.65,2.28-2.82,4.07-3.13,1.78-.32,3.6.26,4.87,1.54l6.73,6.72c.11-.54.17-1.03.17-1.49,0-3.08-1.77-5.49-3.81-8.29-.26-.36-.53-.72-.79-1.09-.05.02-.11.04-.16.06l-2.18.88c-.65.26-1.32.39-1.99.39-1.26,0-2.5-.45-3.54-1.32-1.76-1.47-2.56-3.8-2.09-6.07l.51-2.46c.27-1.29-.29-2.68-1.34-3.36l-2.03-1.31c-1.84-1.19-2.9-3.33-2.78-5.58.13-2.17,1.3-4.01,3.14-4.93l2.1-1.04c1.05-.52,1.65-1.79,1.46-3.09l-.36-2.52c-.34-2.31.58-4.53,2.41-5.8,1.69-1.19,3.8-1.29,5.65-.29l2.11,1.15c1.02.56,2.21.34,2.98-.54l1.58-1.81c1.37-1.59,3.39-2.22,5.39-1.71,2.15.55,3.8,2.32,4.29,4.6l.54,2.48c.15.71.52,1.35,1.06,1.79l.04.04c.55.18,1.1.41,1.63.68,2.67,1.3,5,3.44,6.9,6.36.14.22.29.45.43.7,2.29,3.82,5.13,5.26,7.1,5.8,2.08.58,3.38,2.61,3.04,4.72Zm-3.11-12.46c-4.63,0-8.4-3.76-8.4-8.39s3.77-8.4,8.4-8.4,8.39,3.77,8.39,8.4-3.76,8.39-8.39,8.39Zm15.16-14.23c-6.18,0-11.21-5.03-11.21-11.21s5.03-11.22,11.21-11.22,11.21,5.03,11.21,11.22-5.03,11.21-11.21,11.21Zm-10.81-28.91c1.55,0,2.82-1.27,2.82-2.83s-1.27-2.81-2.82-2.81-2.82,1.26-2.82,2.81,1.26,2.83,2.82,2.83Zm-8.46,79.21c-.5-4.12-2.82-6.46-5.04-7.77t-.02.02c2.19,1.31,4.51,3.64,5.06,7.75Zm-10.5,27.48h-.12.01c.64.02,1.23.44,1.42,1.09.23.79-.22,1.62-1.02,1.85-.01,0-.08.02-.18.05.78-.04,1.4-.7,1.4-1.5-.01-.82-.68-1.49-1.51-1.49Zm-1.02-10.84h0s-.01-.01-.02-.01t.02.01Zm-.13-3h0s-.01-.01-.02-.01t.02.01Zm-17.96-46.49c.93-1.84,2.31-3.36,4.15-4.54.37-.24.75-.46,1.13-.66-2.01,1.01-4.01,2.62-5.28,5.2ZM60.68,13.84c-1.56,0-2.82,1.26-2.82,2.81s1.26,2.83,2.82,2.83,2.82-1.27,2.82-2.83-1.27-2.81-2.82-2.81Zm-38.07,52c.93-1.84,2.31-3.36,4.15-4.54.37-.24.75-.46,1.13-.66-2.01,1.01-4.01,2.62-5.28,5.2Zm17.94,46.48s0,0,.02.01h0s-.01-.01-.02-.01Zm.13,3s.01,0,.02.01h0s-.01-.01-.02-.01Zm1.04,10.85h-.12.01c.64.02,1.23.44,1.42,1.09.23.79-.22,1.62-1.02,1.85-.01,0-.08.02-.18.05.78-.04,1.4-.7,1.4-1.5-.01-.82-.68-1.49-1.51-1.49Zm5.46-35.25s0,.01-.02.02c2.19,1.31,4.51,3.64,5.06,7.75-.5-4.12-2.82-6.46-5.04-7.77ZM60.68,13.84c-1.56,0-2.82,1.26-2.82,2.81s1.26,2.83,2.82,2.83,2.82-1.27,2.82-2.83-1.27-2.81-2.82-2.81Zm-13.5,77.08s0,.01-.02.02c2.19,1.31,4.51,3.64,5.06,7.75-.5-4.12-2.82-6.46-5.04-7.77Zm-5.46,35.25h-.12.01c.64.02,1.23.44,1.42,1.09.23.79-.22,1.62-1.02,1.85-.01,0-.08.02-.18.05.78-.04,1.4-.7,1.4-1.5-.01-.82-.68-1.49-1.51-1.49Zm-1.04-10.85s.01,0,.02.01h0s-.01-.01-.02-.01Zm-.13-3s0,0,.02.01h0s-.01-.01-.02-.01Zm-17.94-46.48c.93-1.84,2.31-3.36,4.15-4.54.37-.24.75-.46,1.13-.66-2.01,1.01-4.01,2.62-5.28,5.2ZM60.68,13.84c-1.56,0-2.82,1.26-2.82,2.81s1.26,2.83,2.82,2.83,2.82-1.27,2.82-2.83-1.27-2.81-2.82-2.81Zm-38.07,52c.93-1.84,2.31-3.36,4.15-4.54.37-.24.75-.46,1.13-.66-2.01,1.01-4.01,2.62-5.28,5.2Zm17.94,46.48s0,0,.02.01h0s-.01-.01-.02-.01Zm.13,3s.01,0,.02.01h0s-.01-.01-.02-.01Zm1.04,10.85h-.12.01c.64.02,1.23.44,1.42,1.09.23.79-.22,1.62-1.02,1.85-.01,0-.08.02-.18.05.78-.04,1.4-.7,1.4-1.5-.01-.82-.68-1.49-1.51-1.49Zm5.46-35.25s0,.01-.02.02c2.19,1.31,4.51,3.64,5.06,7.75-.5-4.12-2.82-6.46-5.04-7.77ZM60.68,13.84c-1.56,0-2.82,1.26-2.82,2.81s1.26,2.83,2.82,2.83,2.82-1.27,2.82-2.83-1.27-2.81-2.82-2.81Zm-13.5,77.08s0,.01-.02.02c2.19,1.31,4.51,3.64,5.06,7.75-.5-4.12-2.82-6.46-5.04-7.77Zm-5.46,35.25h-.12.01c.64.02,1.23.44,1.42,1.09.23.79-.22,1.62-1.02,1.85-.01,0-.08.02-.18.05.78-.04,1.4-.7,1.4-1.5-.01-.82-.68-1.49-1.51-1.49Zm-1.04-10.85s.01,0,.02.01h0s-.01-.01-.02-.01Zm-.13-3s0,0,.02.01h0s-.01-.01-.02-.01Zm-17.94-46.48c.93-1.84,2.31-3.36,4.15-4.54.37-.24.75-.46,1.13-.66-2.01,1.01-4.01,2.62-5.28,5.2ZM60.68,13.84c-1.56,0-2.82,1.26-2.82,2.81s1.26,2.83,2.82,2.83,2.82-1.27,2.82-2.83-1.27-2.81-2.82-2.81Zm-38.07,52c.93-1.84,2.31-3.36,4.15-4.54.37-.24.75-.46,1.13-.66-2.01,1.01-4.01,2.62-5.28,5.2Zm17.94,46.48s0,0,.02.01h0s-.01-.01-.02-.01Zm.13,3s.01,0,.02.01h0s-.01-.01-.02-.01Zm1.04,10.85h-.12.01c.64.02,1.23.44,1.42,1.09.23.79-.22,1.62-1.02,1.85-.01,0-.08.02-.18.05.78-.04,1.4-.7,1.4-1.5-.01-.82-.68-1.49-1.51-1.49Zm5.46-35.25s0,.01-.02.02c2.19,1.31,4.51,3.64,5.06,7.75-.5-4.12-2.82-6.46-5.04-7.77ZM60.68,13.84c-1.56,0-2.82,1.26-2.82,2.81s1.26,2.83,2.82,2.83,2.82-1.27,2.82-2.83-1.27-2.81-2.82-2.81Zm-13.5,77.08s0,.01-.02.02c2.19,1.31,4.51,3.64,5.06,7.75-.5-4.12-2.82-6.46-5.04-7.77Zm-5.46,35.25h-.12.01c.64.02,1.23.44,1.42,1.09.23.79-.22,1.62-1.02,1.85-.01,0-.08.02-.18.05.78-.04,1.4-.7,1.4-1.5-.01-.82-.68-1.49-1.51-1.49Zm-1.04-10.85s.01,0,.02.01h0s-.01-.01-.02-.01Zm-.13-3s0,0,.02.01h0s-.01-.01-.02-.01Zm-17.94-46.48c.93-1.84,2.31-3.36,4.15-4.54.37-.24.75-.46,1.13-.66-2.01,1.01-4.01,2.62-5.28,5.2ZM60.68,13.84c-1.56,0-2.82,1.26-2.82,2.81s1.26,2.83,2.82,2.83,2.82-1.27,2.82-2.83-1.27-2.81-2.82-2.81Zm-38.07,52c.93-1.84,2.31-3.36,4.15-4.54.37-.24.75-.46,1.13-.66-2.01,1.01-4.01,2.62-5.28,5.2Zm17.94,46.48s0,0,.02.01h0s-.01-.01-.02-.01Zm.13,3s.01,0,.02.01h0s-.01-.01-.02-.01Zm1.04,10.85h-.12.01c.64.02,1.23.44,1.42,1.09.23.79-.22,1.62-1.02,1.85-.01,0-.08.02-.18.05.78-.04,1.4-.7,1.4-1.5-.01-.82-.68-1.49-1.51-1.49Zm5.46-35.25s0,.01-.02.02c2.19,1.31,4.51,3.64,5.06,7.75-.5-4.12-2.82-6.46-5.04-7.77ZM60.68,13.84c-1.56,0-2.82,1.26-2.82,2.81s1.26,2.83,2.82,2.83,2.82-1.27,2.82-2.83-1.27-2.81-2.82-2.81Zm-13.5,77.08s0,.01-.02.02c2.19,1.31,4.51,3.64,5.06,7.75-.5-4.12-2.82-6.46-5.04-7.77Zm-5.46,35.25h-.12.01c.64.02,1.23.44,1.42,1.09.23.79-.22,1.62-1.02,1.85-.01,0-.08.02-.18.05.78-.04,1.4-.7,1.4-1.5-.01-.82-.68-1.49-1.51-1.49Zm-1.04-10.85s.01,0,.02.01h0s-.01-.01-.02-.01Zm-.13-3s0,0,.02.01h0s-.01-.01-.02-.01Zm-17.94-46.48c.93-1.84,2.31-3.36,4.15-4.54.37-.24.75-.46,1.13-.66-2.01,1.01-4.01,2.62-5.28,5.2ZM60.68,13.84c-1.56,0-2.82,1.26-2.82,2.81s1.26,2.83,2.82,2.83,2.82-1.27,2.82-2.83-1.27-2.81-2.82-2.81Zm-38.07,52c.93-1.84,2.31-3.36,4.15-4.54.37-.24.75-.46,1.13-.66-2.01,1.01-4.01,2.62-5.28,5.2Zm17.94,46.48s0,0,.02.01h0s-.01-.01-.02-.01Zm.13,3s.01,0,.02.01h0s-.01-.01-.02-.01Zm1.04,10.85h-.12.01c.64.02,1.23.44,1.42,1.09.23.79-.22,1.62-1.02,1.85-.01,0-.08.02-.18.05.78-.04,1.4-.7,1.4-1.5-.01-.82-.68-1.49-1.51-1.49Zm5.46-35.25s0,.01-.02.02c2.19,1.31,4.51,3.64,5.06,7.75-.5-4.12-2.82-6.46-5.04-7.77ZM60.68,13.84c-1.56,0-2.82,1.26-2.82,2.81s1.26,2.83,2.82,2.83,2.82-1.27,2.82-2.83-1.27-2.81-2.82-2.81Zm-13.5,77.08s0,.01-.02.02c2.19,1.31,4.51,3.64,5.06,7.75-.5-4.12-2.82-6.46-5.04-7.77Zm-5.46,35.25h-.12.01c.64.02,1.23.44,1.42,1.09.23.79-.22,1.62-1.02,1.85-.01,0-.08.02-.18.05.78-.04,1.4-.7,1.4-1.5-.01-.82-.68-1.49-1.51-1.49Zm-1.04-10.85s.01,0,.02.01h0s-.01-.01-.02-.01Zm-.13-3s0,0,.02.01h0s-.01-.01-.02-.01Zm-17.94-46.48c.93-1.84,2.31-3.36,4.15-4.54.37-.24.75-.46,1.13-.66-2.01,1.01-4.01,2.62-5.28,5.2ZM60.68,13.84c-1.56,0-2.82,1.26-2.82,2.81s1.26,2.83,2.82,2.83,2.82-1.27,2.82-2.83-1.27-2.81-2.82-2.81Zm-38.07,52c.93-1.84,2.31-3.36,4.15-4.54.37-.24.75-.46,1.13-.66-2.01,1.01-4.01,2.62-5.28,5.2Zm17.94,46.48s0,0,.02.01h0s-.01-.01-.02-.01Zm.13,3s.01,0,.02.01h0s-.01-.01-.02-.01Zm1.04,10.85h-.12.01c.64.02,1.23.44,1.42,1.09.23.79-.22,1.62-1.02,1.85-.01,0-.08.02-.18.05.78-.04,1.4-.7,1.4-1.5-.01-.82-.68-1.49-1.51-1.49Zm5.46-35.25s0,.01-.02.02c2.19,1.31,4.51,3.64,5.06,7.75-.5-4.12-2.82-6.46-5.04-7.77ZM60.68,13.84c-1.56,0-2.82,1.26-2.82,2.81s1.26,2.83,2.82,2.83,2.82-1.27,2.82-2.83-1.27-2.81-2.82-2.81Zm-13.5,77.08s0,.01-.02.02c2.19,1.31,4.51,3.64,5.06,7.75-.5-4.12-2.82-6.46-5.04-7.77Zm-5.46,35.25h-.12.01c.64.02,1.23.44,1.42,1.09.23.79-.22,1.62-1.02,1.85-.01,0-.08.02-.18.05.78-.04,1.4-.7,1.4-1.5-.01-.82-.68-1.49-1.51-1.49Zm-1.04-10.85s.01,0,.02.01h0s-.01-.01-.02-.01Zm-.13-3s0,0,.02.01h0s-.01-.01-.02-.01Zm-17.94-46.48c.93-1.84,2.31-3.36,4.15-4.54.37-.24.75-.46,1.13-.66-2.01,1.01-4.01,2.62-5.28,5.2ZM60.68,13.84c-1.56,0-2.82,1.26-2.82,2.81s1.26,2.83,2.82,2.83,2.82-1.27,2.82-2.83-1.27-2.81-2.82-2.81Zm-38.07,52c.93-1.84,2.31-3.36,4.15-4.54.37-.24.75-.46,1.13-.66-2.01,1.01-4.01,2.62-5.28,5.2Zm17.94,46.48s0,0,.02.01h0s-.01-.01-.02-.01Zm.13,3s.01,0,.02.01h0s-.01-.01-.02-.01Zm1.04,10.85h-.12.01c.64.02,1.23.44,1.42,1.09.23.79-.22,1.62-1.02,1.85-.01,0-.08.02-.18.05.78-.04,1.4-.7,1.4-1.5-.01-.82-.68-1.49-1.51-1.49Zm5.46-35.25s0,.01-.02.02c2.19,1.31,4.51,3.64,5.06,7.75-.5-4.12-2.82-6.46-5.04-7.77ZM60.68,13.84c-1.56,0-2.82,1.26-2.82,2.81s1.26,2.83,2.82,2.83,2.82-1.27,2.82-2.83-1.27-2.81-2.82-2.81Zm-13.5,77.08s0,.01-.02.02c2.19,1.31,4.51,3.64,5.06,7.75-.5-4.12-2.82-6.46-5.04-7.77Zm-5.46,35.25h-.12.01c.64.02,1.23.44,1.42,1.09.23.79-.22,1.62-1.02,1.85-.01,0-.08.02-.18.05.78-.04,1.4-.7,1.4-1.5-.01-.82-.68-1.49-1.51-1.49Zm-1.04-10.85s.01,0,.02.01h0s-.01-.01-.02-.01Zm-.13-3s0,0,.02.01h0s-.01-.01-.02-.01Zm-17.94-46.48c.93-1.84,2.31-3.36,4.15-4.54.37-.24.75-.46,1.13-.66-2.01,1.01-4.01,2.62-5.28,5.2ZM60.68,13.84c-1.56,0-2.82,1.26-2.82,2.81s1.26,2.83,2.82,2.83,2.82-1.27,2.82-2.83-1.27-2.81-2.82-2.81Zm-38.07,52c.93-1.84,2.31-3.36,4.15-4.54.37-.24.75-.46,1.13-.66-2.01,1.01-4.01,2.62-5.28,5.2Zm17.94,46.48s0,0,.02.01h0s-.01-.01-.02-.01Zm.13,3s.01,0,.02.01h0s-.01-.01-.02-.01Zm1.04,10.85h-.12.01c.64.02,1.23.44,1.42,1.09.23.79-.22,1.62-1.02,1.85-.01,0-.08.02-.18.05.78-.04,1.4-.7,1.4-1.5-.01-.82-.68-1.49-1.51-1.49Zm5.46-35.25s0,.01-.02.02c2.19,1.31,4.51,3.64,5.06,7.75-.5-4.12-2.82-6.46-5.04-7.77ZM60.68,13.84c-1.56,0-2.82,1.26-2.82,2.81s1.26,2.83,2.82,2.83,2.82-1.27,2.82-2.83-1.27-2.81-2.82-2.81Zm-13.5,77.08s0,.01-.02.02c2.19,1.31,4.51,3.64,5.06,7.75-.5-4.12-2.82-6.46-5.04-7.77Zm-5.46,35.25h-.12.01c.64.02,1.23.44,1.42,1.09.23.79-.22,1.62-1.02,1.85-.01,0-.08.02-.18.05.78-.04,1.4-.7,1.4-1.5-.01-.82-.68-1.49-1.51-1.49Zm-1.04-10.85s.01,0,.02.01h0s-.01-.01-.02-.01Zm-.13-3s0,0,.02.01h0s-.01-.01-.02-.01Zm-17.94-46.48c.93-1.84,2.31-3.36,4.15-4.54.37-.24.75-.46,1.13-.66-2.01,1.01-4.01,2.62-5.28,5.2ZM60.68,13.84c-1.56,0-2.82,1.26-2.82,2.81s1.26,2.83,2.82,2.83,2.82-1.27,2.82-2.83-1.27-2.81-2.82-2.81Zm-38.07,52c.93-1.84,2.31-3.36,4.15-4.54.37-.24.75-.46,1.13-.66-2.01,1.01-4.01,2.62-5.28,5.2Zm17.94,46.48s0,0,.02.01h0s-.01-.01-.02-.01Zm.13,3s.01,0,.02.01h0s-.01-.01-.02-.01Zm1.04,10.85h-.12.01c.64.02,1.23.44,1.42,1.09.23.79-.22,1.62-1.02,1.85-.01,0-.08.02-.18.05.78-.04,1.4-.7,1.4-1.5-.01-.82-.68-1.49-1.51-1.49Zm5.46-35.25s0,.01-.02.02c2.19,1.31,4.51,3.64,5.06,7.75-.5-4.12-2.82-6.46-5.04-7.77ZM60.68,13.84c-1.56,0-2.82,1.26-2.82,2.81s1.26,2.83,2.82,2.83,2.82-1.27,2.82-2.83-1.27-2.81-2.82-2.81Zm-13.5,77.08s0,.01-.02.02c2.19,1.31,4.51,3.64,5.06,7.75-.5-4.12-2.82-6.46-5.04-7.77Zm-5.46,35.25h-.12.01c.64.02,1.23.44,1.42,1.09.23.79-.22,1.62-1.02,1.85-.01,0-.08.02-.18.05.78-.04,1.4-.7,1.4-1.5-.01-.82-.68-1.49-1.51-1.49Zm-1.04-10.85s.01,0,.02.01h0s-.01-.01-.02-.01Zm-.13-3s0,0,.02.01h0s-.01-.01-.02-.01Zm-17.94-46.48c.93-1.84,2.31-3.36,4.15-4.54.37-.24.75-.46,1.13-.66-2.01,1.01-4.01,2.62-5.28,5.2Zm24.57,25.08s0,.01-.02.02c2.19,1.31,4.51,3.64,5.06,7.75-.5-4.12-2.82-6.46-5.04-7.77Zm-5.46,35.25h-.12.01c.64.02,1.23.44,1.42,1.09.23.79-.22,1.62-1.02,1.85-.01,0-.08.02-.18.05.78-.04,1.4-.7,1.4-1.5-.01-.82-.68-1.49-1.51-1.49Zm-1.04-10.85s.01,0,.02.01h0s-.01-.01-.02-.01Zm-.13-3s0,0,.02.01h0s-.01-.01-.02-.01Zm-17.94-46.48c.93-1.84,2.31-3.36,4.15-4.54.37-.24.75-.46,1.13-.66-2.01,1.01-4.01,2.62-5.28,5.2Zm19.11,60.33h-.12.01c.64.02,1.23.44,1.42,1.09.23.79-.22,1.62-1.02,1.85-.01,0-.08.02-.18.05.78-.04,1.4-.7,1.4-1.5-.01-.82-.68-1.49-1.51-1.49Zm-1.04-10.85s.01,0,.02.01h0s-.01-.01-.02-.01Zm-.13-3s0,0,.02.01h0s-.01-.01-.02-.01Zm-17.94-46.48c.93-1.84,2.31-3.36,4.15-4.54.37-.24.75-.46,1.13-.66-2.01,1.01-4.01,2.62-5.28,5.2Zm24.57,25.08s0,.01-.02.02c2.19,1.31,4.51,3.64,5.06,7.75-.5-4.12-2.82-6.46-5.04-7.77Zm0,0s0,.01-.02.02c2.19,1.31,4.51,3.64,5.06,7.75-.5-4.12-2.82-6.46-5.04-7.77Zm-5.46,35.25h-.12.01c.64.02,1.23.44,1.42,1.09.23.79-.22,1.62-1.02,1.85-.01,0-.08.02-.18.05.78-.04,1.4-.7,1.4-1.5-.01-.82-.68-1.49-1.51-1.49Zm-1.04-10.85s.01,0,.02.01h0s-.01-.01-.02-.01Zm-.13-3s0,0,.02.01h0s-.01-.01-.02-.01Zm-17.94-46.48c.93-1.84,2.31-3.36,4.15-4.54.37-.24.75-.46,1.13-.66-2.01,1.01-4.01,2.62-5.28,5.2Zm19.11,60.33h-.12.01c.64.02,1.23.44,1.42,1.09.23.79-.22,1.62-1.02,1.85-.01,0-.08.02-.18.05.78-.04,1.4-.7,1.4-1.5-.01-.82-.68-1.49-1.51-1.49Zm-1.04-10.85s.01,0,.02.01h0s-.01-.01-.02-.01Zm-.13-3s0,0,.02.01h0s-.01-.01-.02-.01Zm-17.94-46.48c.93-1.84,2.31-3.36,4.15-4.54.37-.24.75-.46,1.13-.66-2.01,1.01-4.01,2.62-5.28,5.2Zm24.57,25.08s0,.01-.02.02c2.19,1.31,4.51,3.64,5.06,7.75-.5-4.12-2.82-6.46-5.04-7.77Zm0,0s0,.01-.02.02c2.19,1.31,4.51,3.64,5.06,7.75-.5-4.12-2.82-6.46-5.04-7.77Zm-5.46,35.25h-.12.01c.64.02,1.23.44,1.42,1.09.23.79-.22,1.62-1.02,1.85-.01,0-.08.02-.18.05.78-.04,1.4-.7,1.4-1.5-.01-.82-.68-1.49-1.51-1.49Zm-1.04-10.85s.01,0,.02.01h0s-.01-.01-.02-.01Zm-.13-3s0,0,.02.01h0s-.01-.01-.02-.01Zm-17.94-46.48c.93-1.84,2.31-3.36,4.15-4.54.37-.24.75-.46,1.13-.66-2.01,1.01-4.01,2.62-5.28,5.2Zm19.11,60.33h-.12.01c.64.02,1.23.44,1.42,1.09.23.79-.22,1.62-1.02,1.85-.01,0-.08.02-.18.05.78-.04,1.4-.7,1.4-1.5-.01-.82-.68-1.49-1.51-1.49Zm-1.04-10.85s.01,0,.02.01h0s-.01-.01-.02-.01Zm-.13-3s0,0,.02.01h0s-.01-.01-.02-.01Zm-17.94-46.48c.93-1.84,2.31-3.36,4.15-4.54.37-.24.75-.46,1.13-.66-2.01,1.01-4.01,2.62-5.28,5.2Zm24.57,25.08s0,.01-.02.02c2.19,1.31,4.51,3.64,5.06,7.75-.5-4.12-2.82-6.46-5.04-7.77Zm0,0s0,.01-.02.02c2.19,1.31,4.51,3.64,5.06,7.75-.5-4.12-2.82-6.46-5.04-7.77Zm-5.46,35.25h-.12.01c.64.02,1.23.44,1.42,1.09.23.79-.22,1.62-1.02,1.85-.01,0-.08.02-.18.05.78-.04,1.4-.7,1.4-1.5-.01-.82-.68-1.49-1.51-1.49Zm-1.04-10.85s.01,0,.02.01h0s-.01-.01-.02-.01Zm-.13-3s0,0,.02.01h0s-.01-.01-.02-.01Zm-17.94-46.48c.93-1.84,2.31-3.36,4.15-4.54.37-.24.75-.46,1.13-.66-2.01,1.01-4.01,2.62-5.28,5.2Zm19.11,60.33h-.12.01c.64.02,1.23.44,1.42,1.09.23.79-.22,1.62-1.02,1.85-.01,0-.08.02-.18.05.78-.04,1.4-.7,1.4-1.5-.01-.82-.68-1.49-1.51-1.49Zm-1.04-10.85s.01,0,.02.01h0s-.01-.01-.02-.01Zm-.13-3s0,0,.02.01h0s-.01-.01-.02-.01Zm-17.94-46.48c.93-1.84,2.31-3.36,4.15-4.54.37-.24.75-.46,1.13-.66-2.01,1.01-4.01,2.62-5.28,5.2Zm24.57,25.08s0,.01-.02.02c2.19,1.31,4.51,3.64,5.06,7.75-.5-4.12-2.82-6.46-5.04-7.77Zm0,0s0,.01-.02.02c2.19,1.31,4.51,3.64,5.06,7.75-.5-4.12-2.82-6.46-5.04-7.77Zm-5.46,35.25h-.12.01c.64.02,1.23.44,1.42,1.09.23.79-.22,1.62-1.02,1.85-.01,0-.08.02-.18.05.78-.04,1.4-.7,1.4-1.5-.01-.82-.68-1.49-1.51-1.49Zm-1.04-10.85s.01,0,.02.01h0s-.01-.01-.02-.01Zm-.13-3s0,0,.02.01h0s-.01-.01-.02-.01Zm-17.94-46.48c.93-1.84,2.31-3.36,4.15-4.54.37-.24.75-.46,1.13-.66-2.01,1.01-4.01,2.62-5.28,5.2Zm19.11,60.33h-.12.01c.64.02,1.23.44,1.42,1.09.23.79-.22,1.62-1.02,1.85-.01,0-.08.02-.18.05.78-.04,1.4-.7,1.4-1.5-.01-.82-.68-1.49-1.51-1.49Zm-1.04-10.85s.01,0,.02.01h0s-.01-.01-.02-.01Zm-.13-3s0,0,.02.01h0s-.01-.01-.02-.01Zm-17.94-46.48c.93-1.84,2.31-3.36,4.15-4.54.37-.24.75-.46,1.13-.66-2.01,1.01-4.01,2.62-5.28,5.2Zm24.57,25.08s0,.01-.02.02c2.19,1.31,4.51,3.64,5.06,7.75-.5-4.12-2.82-6.46-5.04-7.77Zm0,0s0,.01-.02.02c2.19,1.31,4.51,3.64,5.06,7.75-.5-4.12-2.82-6.46-5.04-7.77Zm-5.46,35.25h-.12.01c.64.02,1.23.44,1.42,1.09.23.79-.22,1.62-1.02,1.85-.01,0-.08.02-.18.05.78-.04,1.4-.7,1.4-1.5-.01-.82-.68-1.49-1.51-1.49Zm-1.04-10.85s.01,0,.02.01h0s-.01-.01-.02-.01Zm-.13-3s0,0,.02.01h0s-.01-.01-.02-.01Zm-17.94-46.48c.93-1.84,2.31-3.36,4.15-4.54.37-.24.75-.46,1.13-.66-2.01,1.01-4.01,2.62-5.28,5.2Zm19.11,60.33h-.12.01c.64.02,1.23.44,1.42,1.09.23.79-.22,1.62-1.02,1.85-.01,0-.08.02-.18.05.78-.04,1.4-.7,1.4-1.5-.01-.82-.68-1.49-1.51-1.49Zm-1.04-10.85s.01,0,.02.01h0s-.01-.01-.02-.01Zm-.13-3s0,0,.02.01h0s-.01-.01-.02-.01Zm-17.94-46.48c.93-1.84,2.31-3.36,4.15-4.54.37-.24.75-.46,1.13-.66-2.01,1.01-4.01,2.62-5.28,5.2Zm24.57,25.08s0,.01-.02.02c2.19,1.31,4.51,3.64,5.06,7.75-.5-4.12-2.82-6.46-5.04-7.77Zm0,0s0,.01-.02.02c2.19,1.31,4.51,3.64,5.06,7.75-.5-4.12-2.82-6.46-5.04-7.77Zm0,0s0,.01-.02.02c2.19,1.31,4.51,3.64,5.06,7.75-.5-4.12-2.82-6.46-5.04-7.77Z"/><path class="cls-2" d="m71.49,28.96c-4.53,0-8.21,3.69-8.21,8.22s3.68,8.21,8.21,8.21,8.21-3.68,8.21-8.21-3.68-8.22-8.21-8.22Zm5.14,9.71c-.07,0-.13.01-.2.01-.74,0-1.38-.55-1.48-1.31-.06-.44-.29-1.57-1.25-2.49-.87-.85-1.88-1.09-2.4-1.16-.82-.11-1.4-.86-1.3-1.68.11-.82.86-1.4,1.68-1.3.89.12,2.61.53,4.11,1.98,1.58,1.53,2.01,3.33,2.13,4.27.11.82-.47,1.57-1.29,1.68Z"/><path class="cls-4" d="m56.4,70.36c-1.97-.54-4.81-1.98-7.1-5.8-.14-.25-.29-.48-.43-.7-1.9-2.92-4.23-5.06-6.9-6.36-.53-.27-1.08-.5-1.63-.68l-.04-.04c-.54-.44-.91-1.08-1.06-1.79l-.54-2.48c-.49-2.28-2.14-4.05-4.29-4.6-2-.51-4.02.12-5.39,1.71l-1.58,1.81c-.77.88-1.96,1.1-2.98.54l-2.11-1.15c-1.85-1-3.96-.9-5.65.29-1.83,1.27-2.75,3.49-2.41,5.8l.36,2.52c.19,1.3-.41,2.57-1.46,3.09l-2.1,1.04c-1.84.92-3.01,2.76-3.14,4.93-.12,2.25.94,4.39,2.78,5.58l2.03,1.31c1.05.68,1.61,2.07,1.34,3.36l-.51,2.46c-.47,2.27.33,4.6,2.09,6.07,1.04.87,2.28,1.32,3.54,1.32.67,0,1.34-.13,1.99-.39l2.18-.88s.11-.04.16-.06c.26.37.53.73.79,1.09,2.04,2.8,3.81,5.21,3.81,8.29,0,.46-.06.95-.17,1.49l-6.73-6.72c-1.27-1.28-3.09-1.86-4.87-1.54-1.79.31-3.31,1.48-4.07,3.13l-5.29,11.46c-.73,1.6-.68,3.4.15,4.94.83,1.54,2.3,2.58,4.03,2.85l8.92,1.38c-1.18,2.49-2.38,5.67-2.38,8.83,0,20.81,17.55,21.86,21.07,21.86,11.03,0,17.36-5.98,17.36-16.4,0-8.42-4.61-12.3-8.81-14.08.56-.27,1.09-.58,1.6-.92,3.78-2.47,6.11-6.76,6.34-11.56.02-.27.03-.54.03-.81,0-.24,0-.48-.01-.71-.29-7.26-4.85-10.62-7.59-12.01-.3-.15-.58-.28-.85-.39h-.01s-.07-.03-.07-.03c-.47-.21-.88-.36-1.22-.46-.54-.18-.88-.25-.88-.25-.25-.06-.57-.23-.62-.3,0-.46.53-.99,4.7-.99.97,0,3.13.27,3.92.54,1.19.41,2.49.27,3.56-.37,1.06-.63,1.78-1.7,1.98-2.93l1.2-7.57c.34-2.11-.96-4.14-3.04-4.72Zm-36.31,15.06c-1.19.48-2.13-.16-2.49-.45-.71-.6-1.36-1.74-1.07-3.16l.51-2.46c.52-2.52-.55-5.13-2.66-6.49l-2.02-1.31c-1.12-.72-1.46-1.97-1.41-2.9.06-1.07.61-1.98,1.48-2.41l2.09-1.03c2.24-1.11,3.48-3.61,3.1-6.21l-.36-2.52c-.21-1.41.46-2.43,1.15-2.91.41-.29.86-.43,1.32-.43.4,0,.8.11,1.18.32l2.11,1.15c2.24,1.23,4.99.73,6.68-1.21l1.58-1.82c.63-.71,1.49-.99,2.38-.76.82.21,1.8.93,2.11,2.33l.53,2.47c.03.11.05.22.08.33-.07,0-.13,0-.2,0-.21-.02-.42-.04-.64-.04-.28-.02-.57-.02-.86-.02-4.58,0-16.46,2.96-16.46,16.45,0,.72.03,1.41.09,2.07.01.21.03.41.06.61.03.3.07.59.11.87.04.3.1.61.16.9,0,.06.02.12.03.18.11.57.24,1.11.39,1.64.17.58.36,1.15.56,1.69.07.19.14.38.22.56.19.48.4.95.62,1.4.13.27.26.53.4.79.13.26.27.51.41.75.18.32.36.63.55.93l-1.73.7Zm-8.43,23.87c-.79-.13-1.47-.6-1.85-1.31s-.4-1.53-.07-2.26l5.29-11.46c.36-.77,1.04-1.29,1.87-1.44.15-.03.3-.04.45-.04.67,0,1.3.26,1.78.75l7.67,7.66c-.36.76-.76,1.54-1.2,2.34l-6.23-5.27c-.64-.54-1.58-.46-2.11.18-.54.63-.46,1.57.17,2.11l6.67,5.63c-.15.27-.31.54-.47.81-.01.01-.02.03-.02.04l-7.93-3.48c-.76-.33-1.64.01-1.98.77-.33.76.02,1.64.77,1.98l7.63,3.34-.06.11c-.2.35-.4.7-.59,1.05l-9.79-1.51Zm35.52-18.37c2.22,1.31,4.54,3.65,5.04,7.77-.55-4.11-2.87-6.44-5.06-7.75t.02-.02Zm-.13,0s.05.03.08.05c2.49,1.5,5.06,4.3,5.06,9.44,0,3.77-1.52,7.07-4.21,9.18-.02.02-.04.03-.06.05-2.96-1.9-4.83-5.59-4.83-9.68,0-3.62,1.5-7,3.96-9.04Zm8.23-8.75c-.08.48-.39.73-.56.84-.19.11-.56.27-1.05.1-1.26-.42-3.78-.7-4.89-.7-2.88,0-7.7,0-7.7,3.99,0,2.01,1.84,2.97,2.96,3.23-2.47,2.62-3.95,6.38-3.95,10.33,0,4.65,1.99,8.93,5.23,11.49-1.44.57-3.05.87-4.75.87h-.02s-.03,0-.04.01c-.11-.02-.22-.01-.33.01-2.76.47-7.95,2.87-7.87,8.54.05,3.36,1.06,5.79,3,7.22,1.41,1.05,3.03,1.31,4.33,1.31.99,0,1.79-.15,2.16-.24,0-.01.02-.01.03-.01.1-.03.17-.05.18-.05.8-.23,1.25-1.06,1.02-1.85-.19-.65-.78-1.07-1.42-1.08-.14-.01-.29.01-.43.05-.03.01-2.46.67-4.1-.55-1.14-.85-1.73-2.48-1.77-4.85-.06-4.19,4.46-5.34,5.26-5.51h.13c1.42.04,12.47.75,12.47,12.6s-9,13.4-14.36,13.4c-4.24,0-18.07-1.36-18.07-18.86,0-2.37.84-5.12,2.64-8.63l1.26-2.34.15-.25c.47-.84.95-1.67,1.43-2.49,1.44-2.47,2.81-4.81,3.75-7.06l.11-.29c.72-1.8,1.07-3.35,1.07-4.76,0-4.05-2.13-6.97-4.39-10.06-.21-.29-.42-.58-.64-.88l-.64-.9c-2.21-3.15-4.26-6.84-4.26-12.47,0-.39.01-.77.04-1.14,0-.08,0-.16.02-.24.01-.23.03-.45.06-.66.01-.18.03-.35.07-.52.05-.36.11-.71.19-1.05.1-.48.23-.94.38-1.37,0-.03.02-.07.03-.1.17-.5.37-.97.6-1.41,1.27-2.58,3.27-4.19,5.28-5.2.19-.11.38-.2.58-.28.19-.09.38-.17.57-.25.19-.09.39-.16.57-.22.45-.17.9-.31,1.33-.43.19-.05.38-.1.56-.14.15-.04.3-.07.45-.1.23-.05.45-.1.66-.13.33-.06.64-.1.92-.13.17-.02.34-.04.49-.05.02-.01.04-.01.05,0,.16-.02.31-.02.44-.02.06-.01.12-.01.17-.01.38,0,.74.01,1.1.04.3.02.59.04.88.08.11.02.22.03.33.05.31.04.61.1.91.17.25.06.49.12.72.19.02,0,.04,0,.05.02.16.04.31.09.47.14.51.16,1,.37,1.5.62,2.19,1.07,4.11,2.85,5.72,5.33.13.18.24.37.36.57,2.8,4.69,6.39,6.48,8.89,7.17.59.16.97.74.87,1.34l-1.2,7.57Z"/><path class="cls-2" d="m36.38,55.95c-.07,0-.13,0-.2,0-.21-.02-.42-.04-.64-.04-.28-.02-.57-.02-.86-.02-4.58,0-16.46,2.96-16.46,16.45,0,.72.03,1.41.09,2.07.01.21.03.41.06.61.03.3.07.59.11.87.04.3.1.61.16.9,0,.06.02.12.03.18.11.57.24,1.11.39,1.64.17.58.36,1.15.56,1.69.07.19.14.38.22.56.19.48.4.95.62,1.4.13.27.26.53.4.79.13.26.27.51.41.75.18.32.36.63.55.93l-1.73.7c-1.19.48-2.13-.16-2.49-.45-.71-.6-1.36-1.74-1.07-3.16l.51-2.46c.52-2.52-.55-5.13-2.66-6.49l-2.02-1.31c-1.12-.72-1.46-1.97-1.41-2.9.06-1.07.61-1.98,1.48-2.41l2.09-1.03c2.24-1.11,3.48-3.61,3.1-6.21l-.36-2.52c-.21-1.41.46-2.43,1.15-2.91.41-.29.86-.43,1.32-.43.4,0,.8.11,1.18.32l2.11,1.15c2.24,1.23,4.99.73,6.68-1.21l1.58-1.82c.63-.71,1.49-.99,2.38-.76.82.21,1.8.93,2.11,2.33l.53,2.47c.03.11.05.22.08.33Z"/><path class="cls-2" d="m52.19,100.41c0,3.77-1.52,7.07-4.21,9.18-.02.02-.04.03-.06.05-2.96-1.9-4.83-5.59-4.83-9.68,0-3.62,1.5-7,3.96-9.04.03.02.05.03.08.05,2.49,1.5,5.06,4.3,5.06,9.44Z"/><path class="cls-2" d="m55.61,73.26c-2.5-.69-6.09-2.48-8.89-7.17-.12-.2-.23-.39-.36-.57-1.61-2.48-3.53-4.26-5.72-5.33-.5-.25-.99-.46-1.5-.62-.16-.05-.31-.1-.47-.14-.01-.02-.03-.02-.05-.02-.23-.07-.47-.13-.72-.19-.3-.07-.6-.13-.91-.17-.11-.02-.22-.03-.33-.05-.29-.04-.58-.06-.88-.08-.36-.03-.72-.04-1.1-.04-.05,0-.11,0-.17.01-.13,0-.28,0-.44.02-.01-.01-.03-.01-.05,0-.15.01-.32.03-.49.05-.27.03-.58.08-.92.13-.21.03-.43.08-.66.13-.15.03-.3.06-.45.1-.18.04-.37.09-.56.14-.43.12-.88.26-1.33.43-.18.06-.38.13-.57.22-.19.08-.38.16-.57.25-.2.08-.39.17-.58.28-.38.2-.76.42-1.13.66-1.84,1.18-3.22,2.7-4.15,4.54-.23.44-.43.91-.6,1.41-.01.03-.02.07-.03.1-.15.43-.28.89-.38,1.37-.08.34-.14.69-.19,1.05-.04.17-.06.34-.07.52-.03.21-.05.43-.06.66-.02.08-.02.16-.02.24-.03.37-.04.75-.04,1.14,0,5.63,2.05,9.32,4.26,12.47l.64.9c.22.3.43.59.64.88,2.26,3.09,4.39,6.01,4.39,10.06,0,1.41-.35,2.96-1.07,4.76l-.11.29c-.94,2.25-2.31,4.59-3.75,7.06-.48.82-.96,1.65-1.43,2.49l-.15.25-1.26,2.34c-1.8,3.51-2.64,6.26-2.64,8.63,0,17.5,13.83,18.86,18.07,18.86,5.36,0,14.36-1.74,14.36-13.4s-11.05-12.56-12.47-12.59t-.02-.01h-.11c-.8.17-5.32,1.32-5.26,5.51.04,2.37.63,4,1.77,4.85,1.64,1.22,4.07.56,4.1.55.14-.04.29-.06.43-.05h-.01c.07-.01.12-.01.12-.01.83,0,1.5.67,1.51,1.49,0,.8-.62,1.46-1.4,1.5-.01,0-.02,0-.03.01-.37.09-1.17.24-2.16.24-1.3,0-2.92-.26-4.33-1.31-1.94-1.43-2.95-3.86-3-7.22-.08-5.67,5.11-8.07,7.87-8.54.11-.02.22-.03.33-.01.01-.01.03-.01.04-.01h.02c1.7,0,3.31-.3,4.75-.87-3.24-2.56-5.23-6.84-5.23-11.49,0-3.95,1.48-7.71,3.95-10.33-1.12-.26-2.96-1.22-2.96-3.23,0-3.99,4.82-3.99,7.7-3.99,1.11,0,3.63.28,4.89.7.49.17.86.01,1.05-.1.17-.11.48-.36.56-.84l1.2-7.57c.1-.6-.28-1.18-.87-1.34Zm-15.5-2.38c-.17,2.02-1.88,3.57-3.88,3.57-.11,0-.21,0-.32-.02-2.14-.17-3.73-2.06-3.56-4.19.18-2.14,2.05-3.74,4.2-3.56,1.03.08,1.97.57,2.65,1.36.67.79.99,1.8.91,2.83h0Z"/><path class="cls-2" d="m17.26,98.44c-.54.63-.46,1.57.17,2.11l6.67,5.63c-.15.27-.31.54-.47.81-.01.01-.02.03-.02.04l-7.93-3.48c-.76-.33-1.64.01-1.98.77-.33.76.02,1.64.77,1.98l7.63,3.34-.06.11c-.2.35-.4.7-.59,1.05l-9.79-1.51c-.79-.13-1.47-.6-1.85-1.31s-.4-1.53-.07-2.26l5.29-11.46c.36-.77,1.04-1.29,1.87-1.44.15-.03.3-.04.45-.04.67,0,1.3.26,1.78.75l7.67,7.66c-.36.76-.76,1.54-1.2,2.34l-6.23-5.27c-.64-.54-1.58-.46-2.11.18Z"/><path class="cls-4" d="m60.68,10.84c-3.21,0-5.82,2.61-5.82,5.81s2.61,5.83,5.82,5.83,5.82-2.62,5.82-5.83-2.61-5.81-5.82-5.81Zm0,8.64c-1.56,0-2.82-1.27-2.82-2.83s1.26-2.81,2.82-2.81,2.82,1.26,2.82,2.81-1.27,2.83-2.82,2.83Z"/><path class="cls-4" d="m76.63,38.67c-.07,0-.13.01-.2.01-.74,0-1.38-.55-1.48-1.31-.06-.44-.29-1.57-1.25-2.49-.87-.85-1.88-1.09-2.4-1.16-.82-.11-1.4-.86-1.3-1.68.11-.82.86-1.4,1.68-1.3.89.12,2.61.53,4.11,1.98,1.58,1.53,2.01,3.33,2.13,4.27.11.82-.47,1.57-1.29,1.68Z"/><path class="cls-4" d="m56.33,45.83c-4.63,0-8.4,3.77-8.4,8.4s3.77,8.39,8.4,8.39,8.39-3.76,8.39-8.39-3.76-8.4-8.39-8.4Zm0,13.79c-2.98,0-5.4-2.42-5.4-5.39s2.42-5.4,5.4-5.4,5.39,2.42,5.39,5.4-2.42,5.39-5.39,5.39Z"/><path class="cls-2" d="m61.72,54.23c0,2.97-2.42,5.39-5.39,5.39s-5.4-2.42-5.4-5.39,2.42-5.4,5.4-5.4,5.39,2.42,5.39,5.4Z"/><path class="cls-4" d="m39.2,68.04c-.68-.79-1.62-1.28-2.65-1.36-2.15-.18-4.02,1.42-4.2,3.56-.17,2.13,1.42,4.02,3.56,4.19.11.01.21.02.32.02,2,0,3.71-1.55,3.88-3.57h0c.08-1.04-.24-2.05-.91-2.84Zm-3.04,3.4c-.49-.04-.86-.47-.82-.96.04-.46.43-.81.89-.81h.07c.24.02.45.13.61.31.15.18.23.41.21.65-.04.49-.46.86-.96.81Z"/><path class="cls-2" d="m37.12,70.63c-.04.49-.46.86-.96.81-.49-.04-.86-.47-.82-.96.04-.46.43-.81.89-.81h.07c.24.02.45.13.61.31.15.18.23.41.21.65Z"/></g></svg>