<?xml version="1.0" encoding="UTF-8"?><svg id="Ebene_2" xmlns="http://www.w3.org/2000/svg" viewBox="0 0 100.86 149.79"><defs><style>.cls-1{fill:none;}.cls-2{fill:#face00;}.cls-3{fill:#fff;}.cls-4{fill:#1d1d1b;}</style></defs><g id="Ebene_1-2"><circle class="cls-2" cx="44.74" cy="84.9" r="44.36"/><path class="cls-3" d="m60.51,103.07l21.96-.38s2.44,1.31,2.44,3.75-.19,21.4-.19,21.4c0,0-7.51,5.44-13.33,6.01s-12.08-.64-12.08-.64l1.19-30.14Z"/><path class="cls-1" d="m61.78,131.79h.01v-.08s0,.06-.01.08Z"/><path class="cls-3" d="m61.79,131.71v.08h-.01s.01-.05.01-.08Z"/><path class="cls-4" d="m61.79,131.71v.08h-.01s.01-.05.01-.08Z"/><path class="cls-4" d="m17.3,59.02c-5.27,0-9.57,4.29-9.57,9.57s4.3,9.56,9.57,9.56,9.57-4.29,9.57-9.56-4.29-9.57-9.57-9.57Zm0,16.13c-3.62,0-6.57-2.94-6.57-6.56s2.95-6.57,6.57-6.57,6.57,2.94,6.57,6.57-2.94,6.56-6.57,6.56Z"/><path class="cls-3" d="m23.87,68.59c0,3.62-2.94,6.56-6.57,6.56s-6.57-2.94-6.57-6.56,2.95-6.57,6.57-6.57,6.57,2.94,6.57,6.57Z"/><path class="cls-4" d="m62.86,73.86c-.5-.93-.61-2-.3-3.01.3-1.01.98-1.84,1.91-2.34l2.72-1.46c7.59-4.06,10.45-13.53,6.39-21.11-4.06-7.59-13.54-10.45-21.12-6.39l-22.67,12.14c-1.64.88-2.84,2.34-3.37,4.12-.54,1.78-.35,3.66.52,5.29l16.75,31.27c1.8,3.36,6,4.65,9.37,2.87l4.27-2.25,1.51,2.81c1.26,2.34,3.66,3.67,6.14,3.67,1.11,0,2.23-.26,3.27-.82,3.38-1.81,4.66-6.03,2.85-9.41l-8.24-15.38Zm3.98,22.14c-1.92,1.03-4.32.31-5.35-1.61l-2.21-4.12h0s-.01-.02-.01-.03l-1.46-2.72-9.89-18.46c-.5-.93-.6-2-.3-3.01.31-1.01.99-1.84,1.92-2.34l7.19-3.85.64-.34c.73-.39,1-1.3.61-2.03s-1.3-1.01-2.03-.61l-7.83,4.19c-1.63.87-2.83,2.34-3.37,4.11-.54,1.78-.35,3.66.53,5.3l10.64,19.86-4.26,2.25c-1.91,1-4.3.28-5.32-1.63l-16.75-31.28c-.5-.92-.61-1.99-.3-3,.3-1.01.98-1.84,1.91-2.34l22.68-12.15c6.12-3.28,13.77-.96,17.06,5.16,3.28,6.13.96,13.78-5.16,17.06l-2.72,1.46c-1.64.87-2.84,2.33-3.37,4.11-.54,1.78-.36,3.66.52,5.29l8.24,15.39c1.03,1.92.3,4.32-1.61,5.34Z"/><path class="cls-3" d="m68.45,90.66c1.03,1.92.3,4.32-1.61,5.34-1.92,1.03-4.32.31-5.35-1.61l-2.21-4.12h0s-.01-.02-.01-.03l-1.46-2.72-9.89-18.46c-.5-.93-.6-2-.3-3.01.31-1.01.99-1.84,1.92-2.34l7.19-3.85.64-.34c.73-.39,1-1.3.61-2.03s-1.3-1.01-2.03-.61l-7.83,4.19c-1.63.87-2.83,2.34-3.37,4.11-.54,1.78-.35,3.66.53,5.3l10.64,19.86-4.26,2.25c-1.91,1-4.3.28-5.32-1.63l-16.75-31.28c-.5-.92-.61-1.99-.3-3,.3-1.01.98-1.84,1.91-2.34l22.68-12.15c6.12-3.28,13.77-.96,17.06,5.16,3.28,6.13.96,13.78-5.16,17.06l-2.72,1.46c-1.64.87-2.84,2.33-3.37,4.11-.54,1.78-.36,3.66.52,5.29l8.24,15.39Z"/><path class="cls-4" d="m87.4,107.21v15.21c0,.83-.67,1.5-1.5,1.5-.64,0-1.18-.4-1.39-.96-.07-.17-.11-.35-.11-.54v-15.21c0-2.05-1.67-3.71-3.72-3.71h-15.18c-2.04,0-3.71,1.66-3.71,3.71v24.5s0,.06-.01.08c-.03.79-.69,1.42-1.49,1.42-.45,0-.88-.02-1.28-.07-3.1-.32-4.85-1.79-6.42-3.11-1.59-1.33-2.95-2.48-5.78-2.48s-4.18,1.15-5.77,2.48c-1.77,1.49-3.78,3.18-7.7,3.18s-5.93-1.69-7.7-3.18c-1.59-1.33-2.95-2.48-5.78-2.48s-4.19,1.15-5.77,2.48c-1.78,1.49-3.79,3.18-7.71,3.18-.49,0-.93-.23-1.19-.6-.2-.25-.31-.56-.31-.9s.11-.64.31-.89c.26-.37.7-.61,1.19-.61,2.82,0,4.19-1.15,5.78-2.48,1.77-1.49,3.78-3.18,7.7-3.18s5.93,1.69,7.71,3.18c1.58,1.33,2.95,2.48,5.77,2.48s4.19-1.15,5.77-2.48c1.78-1.49,3.79-3.18,7.7-3.18s5.93,1.69,7.71,3.18c1.27,1.07,2.41,2.02,4.27,2.35v-13.6c-2.96-.36-4.67-1.79-6.2-3.08-1.59-1.33-2.95-2.48-5.78-2.48s-4.18,1.15-5.77,2.48c-1.77,1.49-3.78,3.18-7.7,3.18s-5.93-1.69-7.7-3.18c-1.59-1.33-2.95-2.48-5.78-2.48s-4.19,1.15-5.77,2.48c-1.78,1.49-3.79,3.18-7.71,3.18-.49,0-.93-.23-1.19-.6-.2-.25-.31-.56-.31-.9s.11-.64.31-.89c.26-.37.7-.61,1.19-.61,2.82,0,4.19-1.15,5.78-2.48,1.77-1.49,3.78-3.18,7.7-3.18s5.93,1.69,7.71,3.18c1.58,1.33,2.95,2.48,5.77,2.48s4.19-1.15,5.77-2.48c1.78-1.49,3.79-3.18,7.7-3.18s5.93,1.69,7.71,3.18c1.27,1.07,2.41,2.02,4.27,2.35v-6.24c0-3.7,3.01-6.71,6.71-6.71h15.18c3.71,0,6.72,3.01,6.72,6.71Z"/><path class="cls-1" d="m50.21,107.22c-1.08.5-2.04,1.35-3.03,2.27.08-.06.15-.13.23-.19.99-.83,2.06-1.73,3.49-2.36-.23.08-.46.17-.69.28Zm0,0c-1.08.5-2.04,1.35-3.03,2.27.08-.06.15-.13.23-.19.99-.83,2.06-1.73,3.49-2.36-.23.08-.46.17-.69.28Zm0,0c-1.08.5-2.04,1.35-3.03,2.27.08-.06.15-.13.23-.19.99-.83,2.06-1.73,3.49-2.36-.23.08-.46.17-.69.28Zm0,0c-1.08.5-2.04,1.35-3.03,2.27.08-.06.15-.13.23-.19.99-.83,2.06-1.73,3.49-2.36-.23.08-.46.17-.69.28Zm0,0c-1.08.5-2.04,1.35-3.03,2.27.08-.06.15-.13.23-.19.99-.83,2.06-1.73,3.49-2.36-.23.08-.46.17-.69.28Zm0,0c-1.08.5-2.04,1.35-3.03,2.27.08-.06.15-.13.23-.19.99-.83,2.06-1.73,3.49-2.36-.23.08-.46.17-.69.28Zm18.35,21.17c-2.82,0-4.18-1.15-5.76-2.48-1.78-1.49-3.79-3.19-7.7-3.19s-5.92,1.7-7.69,3.19c-1.58,1.33-2.95,2.48-5.76,2.48s-4.19-1.15-5.77-2.48c-1.77-1.49-3.78-3.19-7.7-3.19s-5.92,1.7-7.7,3.19c-1.58,1.33-2.94,2.48-5.76,2.48-.83,0-1.5.67-1.5,1.5s.67,1.5,1.5,1.5c3.91,0,5.92-1.69,7.7-3.19,1.58-1.33,2.94-2.48,5.76-2.48s4.19,1.15,5.77,2.48c1.77,1.5,3.78,3.19,7.7,3.19s5.92-1.69,7.69-3.19c1.58-1.33,2.94-2.48,5.76-2.48s4.18,1.15,5.76,2.48c1.78,1.5,3.79,3.19,7.7,3.19.83,0,1.5-.67,1.5-1.5s-.67-1.5-1.5-1.5Zm-17.07-18.46c-.69.33-1.48,1.03-2.31,1.8.06-.04.11-.09.16-.13.87-.74,1.68-1.42,2.7-1.89-.19.06-.37.14-.55.22Zm-1.28-2.71c-1.08.5-2.04,1.35-3.03,2.27.08-.06.15-.13.23-.19.99-.83,2.06-1.73,3.49-2.36-.23.08-.46.17-.69.28Zm0,0c-1.08.5-2.04,1.35-3.03,2.27.08-.06.15-.13.23-.19.99-.83,2.06-1.73,3.49-2.36-.23.08-.46.17-.69.28Zm0,0c-1.08.5-2.04,1.35-3.03,2.27.08-.06.15-.13.23-.19.99-.83,2.06-1.73,3.49-2.36-.23.08-.46.17-.69.28Zm0,0c-1.08.5-2.04,1.35-3.03,2.27.08-.06.15-.13.23-.19.99-.83,2.06-1.73,3.49-2.36-.23.08-.46.17-.69.28Zm0,0c-1.08.5-2.04,1.35-3.03,2.27.08-.06.15-.13.23-.19.99-.83,2.06-1.73,3.49-2.36-.23.08-.46.17-.69.28Z"/><path class="cls-1" d="m100.86,149.79H0V0h100.86v149.79Z"/></g></svg>