<?xml version="1.0" encoding="UTF-8"?><svg id="Ebene_2" xmlns="http://www.w3.org/2000/svg" viewBox="0 0 958.47 958.47"><defs><style>.cls-1{fill:#fff;opacity:.18;}</style></defs><g id="Ebene_1-2"><path class="cls-1" d="m958.47,66.25V0h-137.38c.78,53.46-22.13,132.31-68.05,123.6-48.99-9.29-70.11-40.54-76.87-87-1.77-12.16-.58-24.78,3.11-36.6h-23.74c14.93,24.25,19.34,53.81,2.89,88.12-20.93,43.66-70.88,6.11-105.13,48.24-34.25,42.14-19.89,95.35-76.48,107.18-56.59,11.83-159.64-55.74-139.37-183.71,3.75-23.69,10.84-43.41,20.19-59.83h-67.69c33.29,39.11,23.79,106.76,15.4,115.15-14.19,14.19-36.82,1.84-53.93,5.01-15.93,2.95-27.15,16.27-39.77,25.27-13,9.27-27.2,18.35-43.14,21.25-27.87,5.07-100.52-17.74-108.12-70.11-5.27-36.28-.38-71.74,47.46-96.57H26.26c8.29,18.68,8.58,35.14,8.58,35.14,3.26,50.96-13.02,68.53-34.84,78.27v35.96c22.35-4.65,45.77-2.88,67.16-1.27,67.57,5.07,101.36,106.43,101.36,106.43,0,74.33-69.26,76.02-87.85,130.08-18.58,54.06,23.65,109.81,0,133.46-9.87,9.87-44.46,14.44-80.67,1.93v282.35c13.52-16.34,30.29-17.16,38.82-15.86,17.27,2.63,77.71-15.02,85.97,34.54,5.95,35.71-18.77,28.65-18.4,60.5.3,25.28,43.39,44.69,59.85,76.95h26.72c-3.86-2.71-7.27-5.65-10.15-8.84-48.22-53.27-58.21-130.87,39.78-166.34,97.98-35.48,130.08,59.13,134.35,79.4,4.27,20.27-24.54,27.03-16.09,55.33,8.45,28.3,57.44,31.62,57.44,31.62,0,0,7.16,3.78,14.56,8.84h57.39c-45.09-12.77-106.76-22.63-105.17-45.83,2.25-33.06-7.88-46.57,74.33-55.58s50.57-54.06,113.93-58.56,76.41,36.04,97.81,50.68c21.4,14.64,96.86,57.88,92.35,100.46-.32,2.99-.77,5.93-1.34,8.84h148.73c-.29-4.99-.09-10.17.7-15.53,7.6-51.53,55.75-43.08,65.04-59.97.68-1.24,1.29-2.68,1.87-4.28v-148.78c-14.82-5.8-25.55-19.79-37.19-30.24-15.05-13.51-48.59-13.28-50.83-52.37,0,0-8.45-21.96,24.5-45.61,26.03-18.68,41.51-42.1,63.53-50.7v-11.63c-.34-.05-.69-.11-1.02-.18-16.89-3.38-24.98-6.76-24.74-32.1.24-25.34,12.07-36.32,20.51-45.61,1.92-2.11,3.61-4.3,5.24-6.44v-80.68c-2.49-1.18-5.07-2.2-7.78-2.99-27.03-7.88-94.6,17.46-113.19-35.75-18.58-53.21,13.51-44.77-7.6-88.69-21.12-43.92-50.68-85.31-35.48-114.88,13.01-25.29,105.78-93.25,164.04-65.79Zm-677.14,70.39c17.67,1.44,35.73,6.31,49.84,17.47,8.44,6.68,15.19,15.96,19.52,26.17,3.09,7.3,4.94,15.08,5.28,22.74.3,6.67-.48,13.32-.28,19.99.19,6.45,1.73,12.25,1.09,18.75-1.11,11.26-24.76,46.32-64.55,35.55-39.79-10.77-43.92-16.03-58.94-18.28-15.02-2.25-43.92,1.5-49.93-32.66-6.01-34.16,38.29-94.6,97.98-89.72ZM101.79,742.75c-21.12,3.38-68.42-21.12-84.47-62.51-16.05-41.39,27.03-110.65,65.89-129.24,38.85-18.58,72.64-38.01,70.11-62.51-2.53-24.5-49.84-41.39-48.99-80.24.84-38.86,74.33-132.61,139.37-130.93s47.3,113.19,51.53,134.3c4.22,21.12,83.56,71.8,78.95,122.48-3.68,40.38-40.94,75.18-82.33,76.02-41.39.84-73.49-3.38-109.81,20.27-36.32,23.65-59.13,108.96-80.24,112.34Zm36.88,32.66c-9.01-10.7-12.67-37.73,7.32-62.79,19.99-25.06,48.15-24.5,60.25-1.97,12.11,22.52,11.26,32.41,11.26,32.41,2.25,67.83-69.83,43.05-78.84,32.35Zm402.07-63.63c-33.79,43.92-82.22,129.52-128.39,130.64-46.18,1.13-63.07-29.28-79.96-49.55-16.89-20.27-47.3-48.94-77.71-58.26-30.41-9.32-47.3-14.95-47.3-52.12s27.03-47.25,67.57-55.73c40.54-8.47,70.95-.59,104.74-27.62,33.79-27.03,38.29-109.25,109.25-129.52,70.95-20.27,144.16,52.93,164.43,79.96,20.27,27.03,43.92,56.36,46.18,77.17,3.09,28.55-66.45,61.36-88.97,61.36s-36.04-20.27-69.83,23.65Zm391.93,72.08c-3.84,78.78-102.49,134.02-156.55,128.39-54.06-5.63-122.76-95.73-144.16-109.25-21.4-13.51-48.43-22.52-48.43-57.44s34.91-39.42,85.59-63.07c50.68-23.65,67.57-50.68,119.38-46.18,51.81,4.5,146.41,101.36,144.16,147.54Zm-37.73-394.18c17.74-18.58,66.73-5.91,62.51,42.23-2.58,29.45-25.34,29.56-32.1,26.19-6.76-3.38-48.15-49.84-30.41-68.42Zm-12.95,31.53c51.81,63.07,38.29,87.85,36.04,111.5s-105.87,106.99-152.04,92.35c-46.18-14.64-84.47-40.54-84.47-63.07s10.14-11.8,10.14-38,11.26-139.95,77.71-151.21,112.62,48.43,112.62,48.43Zm-77.71-158.8c-10.14,87.85-72.08,47.3-92.35,101.36-20.27,54.06-11.26,117.13-36.04,128.39-24.78,11.26-38.29-4.5-74.33-40.54-36.04-36.04-67.57-27.03-112.62-9.01-45.05,18.02-144.16,53.14-180.2-49.55-26.89-76.63,20.49-119.38,65.43-128.39,44.94-9.01,62.96,4.5,119.27-9.01,56.31-13.51,89.4-126.2,160.49-134.59,14.54-1.72,62.04-6.03,89.54,12.39,63.07,42.23,65.24,90.65,60.82,128.95Z"/></g></svg>